<svg id="Layer_5" enable-background="new 0 0 64 64" height="512" viewBox="0 0 64 64" width="512" xmlns="http://www.w3.org/2000/svg"><path d="m33 43c5.514 0 10-4.486 10-10s-4.486-10-10-10-10 4.486-10 10 4.486 10 10 10zm8-10c0 4.411-3.589 8-8 8-4.072 0-7.436-3.06-7.931-7h4.073c.447 1.72 2 3 3.858 3 2.206 0 4-1.794 4-4 0-.795-.24-1.532-.641-2.156l2.763-2.984c1.17 1.392 1.878 3.184 1.878 5.14zm-6 0c0 1.103-.897 2-2 2s-2-.897-2-2 .897-2 2-2 2 .897 2 2zm-2-8c1.736 0 3.339.562 4.652 1.504l-2.768 2.989c-.564-.304-1.199-.493-1.884-.493-1.858 0-3.411 1.28-3.858 3h-4.073c.495-3.94 3.859-7 7.931-7z"/><path d="m58 1c-2.757 0-5 2.243-5 5 0 1.086.357 2.084.947 2.905l-2.237 2.416c-.536-.197-1.107-.321-1.71-.321h-44c-2.757 0-5 2.243-5 5v30c0 2.757 2.243 5 5 5h17v2h-9.5l-3.5 4.667v5.333h36v-5.333l-3.5-4.667h-9.5v-2h11.38c1.795 2.034 3.562 4.04 4.64 5.263.971 1.104 2.374 1.737 3.848 1.737 2.83 0 5.132-2.302 5.132-5.138 0-1.47-.632-2.872-1.733-3.845l-1.553-1.373c.183-.526.286-1.082.286-1.644v-30c0-1.42-.602-2.697-1.556-3.608l1.974-2.132c.756.46 1.634.74 2.582.74 2.757 0 5-2.243 5-5s-2.243-5-5-5zm-43.5 54h8.5v2h-10zm-2.5 6v-2h32v2zm29.5-6 1.5 2h-10v-2zm-10.5 2h-6v-6h6zm25-4.132c0 1.727-1.405 3.132-3.132 3.132-.9 0-1.755-.386-2.348-1.058-2.127-2.416-6.934-7.872-9.358-10.591 1.229-.886 2.307-1.964 3.193-3.194l10.587 9.359c.672.594 1.058 1.449 1.058 2.352zm-8.803-11.868-1.775-1.569c1.002-1.928 1.578-4.112 1.578-6.431 0-3.693-1.448-7.047-3.793-9.552l5.793-6.256v23.808zm-5.453-18.916c-2.398-1.925-5.436-3.084-8.744-3.084-7.382 0-13.433 5.747-13.949 13h-2.193c-.447-1.72-2-3-3.858-3-2.206 0-4 1.794-4 4s1.794 4 4 4c1.858 0 3.411-1.28 3.858-3h2.193c.184 2.591 1.069 4.987 2.477 7h-14.528v-24h39.452zm-26.744 10.916c0 1.103-.897 2-2 2s-2-.897-2-2 .897-2 2-2 2 .897 2 2zm6 0c0-6.617 5.383-12 12-12s12 5.383 12 12-5.383 12-12 12-12-5.383-12-12zm28.41 9.957c.907-.19 1.59-.995 1.59-1.957v-24c0-1.103-.897-2-2-2h-42c-1.103 0-2 .897-2 2v24c0 1.103.897 2 2 2h16.221c2.526 2.47 5.976 4 9.779 4 2.321 0 4.507-.576 6.436-1.58.808.905 1.943 2.184 3.177 3.58h-36.613c-1.654 0-3-1.346-3-3v-30c0-1.654 1.346-3 3-3h44c1.654 0 3 1.346 3 3v30c0 .04-.013.078-.015.117zm8.59-33.957c-1.654 0-3-1.346-3-3s1.346-3 3-3 3 1.346 3 3-1.346 3-3 3z"/><path d="m49.328 49.379h2v1.9h-2z" transform="matrix(.707 -.707 .707 .707 -20.847 50.328)"/><path d="m43.707 43.707h2v2h-2z" transform="matrix(.707 -.707 .707 .707 -18.518 44.707)"/><path d="m46.536 46.536h2v2h-2z" transform="matrix(.707 -.707 .707 .707 -19.69 47.536)"/><path d="m9 19h10v2h-10z"/><path d="m17 23h2v2h-2z"/><path d="m9 23h2v2h-2z"/><path d="m13 23h2v2h-2z"/></svg>