<svg height="512pt" viewBox="0 0 512.00039 512" width="512pt" xmlns="http://www.w3.org/2000/svg"><path d="m473.316406 150.296875c-23.234375-26.785156-57.058594-43.949219-92.800781-43.949219-8.132813 0-16.269531.78125-24.25 2.347656-3.359375.660157-6.691406 1.460938-9.980469 2.402344-27.066406 7.734375-53.507812 25.550782-68.089844 49.941406-3.242187 5.421876-5.980468 11.128907-8.761718 16.789063-3.027344 6.160156-4.367188 15.582031-12.820313 16.027344-7.929687.414062-10.785156-8.195313-13.421875-14.078125-7.738281-17.238282-18.109375-31.996094-32.652344-44.195313-22.425781-18.8125-51.140624-29.234375-80.40625-29.234375-35.746093 0-69.570312 17.164063-92.800781 43.949219-52.871093 60.953125-28.320312 156.046875 17.15625 215.714844 45.828125 60.125 116.550781 116.84375 189.640625 136.171875 7.339844 1.941406 15.050782 1.941406 22.390625 0 73.089844-19.328125 143.8125-76.046875 189.640625-136.171875 45.476563-59.667969 70.023438-154.761719 17.15625-215.714844zm0 0" fill="#e63950"/><path d="m456.148438 366.011719c-45.816407 60.121093-116.546876 116.847656-189.617188 136.179687-7.351562 1.921875-15.066406 1.921875-22.417969 0-1.101562-.292968-2.214843-.589844-3.316406-.902344 71.890625-20.144531 141.175781-76.066406 186.300781-135.277343 45.496094-59.667969 70.027344-154.757813 17.160156-215.699219-20.152343-23.257812-48.261718-39.246094-78.679687-43.082031 4.957031-.601563 9.957031-.890625 14.945313-.890625 35.738281 0 69.542968 17.15625 92.785156 43.972656 52.867187 60.941406 28.335937 156.03125-17.160156 215.699219zm0 0" fill="#cc2e43"/><path d="m493.117188 63.472656h-33.21875c-6.28125 0-11.371094-5.089844-11.371094-11.371094v-33.21875c0-6.277343-5.089844-11.371093-11.371094-11.371093h-46.359375c-6.277344 0-11.367187 5.089843-11.367187 11.371093v33.21875c0 6.28125-5.09375 11.371094-11.371094 11.371094h-33.21875c-6.28125 0-11.371094 5.089844-11.371094 11.371094v46.359375c0 6.277344 5.089844 11.371094 11.371094 11.371094h33.21875c6.277344 0 11.371094 5.089843 11.371094 11.371093v33.21875c0 6.277344 5.089843 11.371094 11.367187 11.371094h46.359375c6.28125 0 11.371094-5.09375 11.371094-11.371094v-33.21875c0-6.28125 5.089844-11.371093 11.371094-11.371093h33.21875c6.277343 0 11.371093-5.09375 11.371093-11.371094v-46.359375c0-6.28125-5.09375-11.371094-11.371093-11.371094zm0 0" fill="#6fd6a2"/><path d="m504.492188 74.847656v46.351563c0 6.277343-5.089844 11.367187-11.382813 11.367187h-33.214844c-6.277343 0-11.367187 5.089844-11.367187 11.382813v33.214843c0 6.277344-5.089844 11.367188-11.367188 11.367188h-21.089844c6.292969 0 11.382813-5.089844 11.382813-11.367188v-36.496093c0-14.792969 11.992187-26.785157 26.785156-26.785157h11.964844c3.765625 0 6.8125-3.050781 6.8125-6.8125v-15.265624c0-3.753907-3.042969-6.796876-6.796875-6.796876h-11.980469c-14.792969 0-26.785156-11.992187-26.785156-26.785156v-39.339844c0-6.277343-5.089844-11.367187-11.382813-11.367187h21.089844c6.277344 0 11.367188 5.089844 11.367188 11.367187v33.214844c0 6.292969 5.089844 11.382813 11.367187 11.382813h33.214844c6.292969 0 11.382813 5.089843 11.382813 11.367187zm0 0" fill="#43cd8e"/><path d="m512 121.203125v-46.359375c0-10.410156-8.472656-18.882812-18.882812-18.882812h-1.902344c-4.148438 0-7.511719 3.363281-7.511719 7.511718 0 4.148438 3.363281 7.511719 7.511719 7.511719h1.902344c2.125 0 3.859374 1.730469 3.859374 3.859375v46.359375c0 2.125-1.734374 3.855469-3.859374 3.855469h-33.21875c-10.414063 0-18.882813 8.472656-18.882813 18.886718v33.21875c0 2.125-1.734375 3.859376-3.859375 3.859376h-46.359375c-2.125 0-3.859375-1.734376-3.859375-3.859376v-33.21875c0-10.414062-8.46875-18.886718-18.882812-18.886718h-33.21875c-2.125 0-3.855469-1.730469-3.855469-3.855469v-46.359375c0-2.128906 1.730469-3.859375 3.855469-3.859375h33.21875c10.414062 0 18.882812-8.46875 18.882812-18.882813v-33.21875c0-2.125 1.734375-3.859374 3.859375-3.859374h46.359375c2.125 0 3.859375 1.734374 3.859375 3.859374v33.21875c0 7.902344 4.984375 15.03125 12.402344 17.742188 3.898437 1.421875 8.210937-.582031 9.632812-4.480469 1.425781-3.898437-.582031-8.210937-4.476562-9.632812-1.261719-.460938-2.535157-1.761719-2.535157-3.628907v-33.21875c0-10.410156-8.472656-18.882812-18.882812-18.882812h-46.359375c-10.410156 0-18.882813 8.472656-18.882813 18.882812v33.21875c0 2.128907-1.730468 3.859376-3.859374 3.859376h-33.21875c-10.410157 0-18.882813 8.472656-18.882813 18.882812v40.808594c-18.582031 10.359375-34.242187 24.859375-44.214844 41.535156-3.992187 6.6875-8.359375 15.089844-11.144531 22.292969-2.085938 5.386719-2.984375 6.800781-4.375 6.871093-.023438.003907-.046875.003907-.070312.003907-1.773438 0-3.445313-3.527344-5.285157-7.78125-.277343-.644531-.550781-1.273438-.820312-1.875-8.617188-19.195313-19.960938-34.53125-34.675781-46.875-23.824219-19.984375-54.09375-30.988281-85.242188-30.988281-36.925781 0-72.820312 16.960937-98.472656 46.539062-54.085938 62.355469-32.457032 160.484375 16.859375 225.191406 22.042969 28.917969 49.070312 56.179688 78.167969 78.839844 3.273437 2.546875 7.992187 1.960938 10.542968-1.3125 2.546875-3.273438 1.960938-7.992188-1.3125-10.542969-28.089844-21.875-54.179687-48.191406-75.449218-76.09375-23.183594-30.417969-39.214844-68.257812-43.988282-103.820312-3.808594-28.378907-2.296875-69.183594 26.53125-102.421875 22.796875-26.285156 54.554688-41.359375 87.125-41.355469 27.613282 0 54.457032 9.757813 75.578125 27.476563 12.941407 10.855468 22.960938 24.433593 30.625 41.515624.242188.539063.488281 1.105469.738281 1.6875 2.640626 6.101563 7.542969 17.460938 19.9375 16.816407 11.464844-.605469 15.304688-10.523438 17.601563-16.464844 2.65625-6.863281 6.257813-13.6875 10.027344-19.996094 7.867187-13.15625 19.894531-24.785156 34.265625-33.605469 3.355468 5.277344 9.234375 8.792969 15.933594 8.792969h33.21875c2.128906 0 3.859374 1.730469 3.859374 3.859375v33.21875c0 10.414063 8.46875 18.882813 18.882813 18.882813h46.355469c10.414062 0 18.886718-8.46875 18.886718-18.882813v-33.21875c0-.140625.027344-.273437.039063-.410156 4.058594 3.605469 7.925781 7.496094 11.558594 11.683594 28.828125 33.238281 30.339843 74.042968 26.53125 102.421875-4.773438 35.5625-20.804688 73.402343-43.988281 103.820312-23.300782 30.570313-52.03125 58.890625-83.09375 81.902344-33.582032 24.878906-69.023438 42.710937-102.488282 51.558594-6.070312 1.605469-12.484375 1.605469-18.554687 0-26.847657-7.097657-54.355469-19.625-81.742188-37.21875l-.585937-.378907c-3.488282-2.246093-8.132813-1.242187-10.382813 2.246094-2.246093 3.488282-1.242187 8.136719 2.246094 10.386719l.59375.382813c28.71875 18.449218 57.660156 31.609374 86.03125 39.109374 4.292969 1.132813 8.703125 1.703126 13.117187 1.703126 4.414063 0 8.828126-.566407 13.117188-1.703126 35.289062-9.332031 72.496094-28.007812 107.59375-54.011718 32.179688-23.84375 61.957031-53.191406 86.101562-84.871094 49.316407-64.703125 70.941407-162.835938 16.855469-225.1875-1.574219-1.820312-3.203125-3.570312-4.855469-5.292969h18.984376c10.410156.003907 18.882812-8.46875 18.882812-18.878906zm0 0"/></svg>