<svg height="512" viewBox="0 0 512 512" width="512" xmlns="http://www.w3.org/2000/svg"><g><g><path d="m344 296v176a24.006 24.006 0 0 1 -24 24h-240a24.006 24.006 0 0 1 -24-24v-432a24.006 24.006 0 0 1 24-24h240a24.006 24.006 0 0 1 24 24v24" fill="#83d8f4"/><path d="m256 48h-112l-9-32h129z" fill="#57565c"/><path d="m320 293.42v34.58a16 16 0 0 1 -16 16h-208a16 16 0 0 1 -16-16v-48a16 16 0 0 1 16-16h141.58" fill="#ffeb99"/><path d="m456 184a112.03 112.03 0 0 1 -166.44 97.9l-65.19 21.73 21.73-65.19a112.008 112.008 0 1 1 209.9-54.44z" fill="#ffda44"/><g fill="#57565c"><path d="m328 104h32v96h-32z"/><path d="m328 224h32v32h-32z"/></g></g><g><path d="m144 456h-56a8 8 0 0 0 0 16h56a8 8 0 0 0 0-16z"/><path d="m176 456h-8a8 8 0 0 0 0 16h8a8 8 0 0 0 0-16z"/><path d="m351.99 64.27c0-.09.01-.18.01-.27v-24a32.03 32.03 0 0 0 -32-32h-240a32.03 32.03 0 0 0 -32 32v432a32.036 32.036 0 0 0 32 32h240a32.036 32.036 0 0 0 32-32v-168.27a120 120 0 0 0 -.01-239.46zm-98.24-40.27-4 16h-99.69l-4.5-16zm82.25 448a16.021 16.021 0 0 1 -16 16h-240a16.021 16.021 0 0 1 -16-16v-432a16.021 16.021 0 0 1 16-16h48.94l7.36 26.17a8 8 0 0 0 7.7 5.83h112a8 8 0 0 0 7.76-6.06l6.49-25.94h49.75a16.021 16.021 0 0 1 16 16v24c0 .09.01.18.01.27a120.029 120.029 0 0 0 -98.59 174.91l-5.61 16.82h-135.81a24.032 24.032 0 0 0 -24 24v48a24.032 24.032 0 0 0 24 24h208a24.032 24.032 0 0 0 24-24v-25.08q3.975.525 8 .8zm-117.29-162.71a8.028 8.028 0 0 0 5.66 2.34 7.884 7.884 0 0 0 2.53-.41l61.91-20.64a119.267 119.267 0 0 0 23.19 9.08v28.34a8.011 8.011 0 0 1 -8 8h-208a8.011 8.011 0 0 1 -8-8v-48a8.011 8.011 0 0 1 8-8h130.48l-9.7 29.1a8.012 8.012 0 0 0 1.93 8.19zm125.29-21.29a104.026 104.026 0 0 1 -50.54-13.09 8.032 8.032 0 0 0 -6.43-.6l-50.01 16.67 8.19-24.58a.037.037 0 0 0 .01-.03l8.47-25.4a8.032 8.032 0 0 0 -.6-6.43 104.01 104.01 0 1 1 90.91 53.46z"/><path d="m200 280h-96a8 8 0 0 0 0 16h96a8 8 0 0 0 0-16z"/><path d="m136 304h-32a8 8 0 0 0 0 16h32a8 8 0 0 0 0-16z"/><path d="m168 304h-8a8 8 0 0 0 0 16h8a8 8 0 0 0 0-16z"/><path d="m360 96h-32a8 8 0 0 0 -8 8v96a8 8 0 0 0 8 8h32a8 8 0 0 0 8-8v-96a8 8 0 0 0 -8-8zm-8 96h-16v-80h16z"/><path d="m360 216h-32a8 8 0 0 0 -8 8v32a8 8 0 0 0 8 8h32a8 8 0 0 0 8-8v-32a8 8 0 0 0 -8-8zm-8 32h-16v-16h16z"/></g></g></svg>