<svg id="Capa_1" enable-background="new 0 0 512 512" height="512" viewBox="0 0 512 512" width="512" xmlns="http://www.w3.org/2000/svg"><g><g><g><path d="m308.296 120.084c-4.145 0-7.504-3.359-7.504-7.504v-98.487c0-4.145 3.359-7.504 7.504-7.504s7.504 3.359 7.504 7.504v98.487c.001 4.145-3.359 7.504-7.504 7.504z" fill="#9bd069"/></g><g><path d="m159.658 164.274c-4.145 0-7.504-3.359-7.504-7.504v-84.271l-53.1-53.099c-2.931-2.931-2.931-7.682 0-10.614 2.93-2.929 7.682-2.929 10.613 0l53.54 53.539c2.552 2.553 3.956 5.945 3.956 9.552v84.892c0 4.146-3.36 7.505-7.505 7.505zm-7.066-91.337h.01z" fill="#9bd069"/></g><g><circle cx="104.361" cy="14.093" fill="#9bd069" r="14.093"/></g><g><path d="m118.438 192.444c-4.145 0-7.504-3.359-7.504-7.504v-84.27l-81.271-81.27c-2.931-2.931-2.931-7.682 0-10.614 2.93-2.929 7.682-2.929 10.613 0l81.71 81.71c2.551 2.551 3.956 5.944 3.956 9.551v84.892c0 4.146-3.359 7.505-7.504 7.505zm-7.065-91.334h.01z" fill="#9bd069"/></g><g><circle cx="34.97" cy="14.093" fill="#9bd069" r="14.093"/></g><g><path d="m352.342 164.274c-4.145 0-7.504-3.359-7.504-7.504v-84.892c0-3.607 1.404-6.998 3.953-9.55l53.542-53.542c2.932-2.93 7.683-2.928 10.614 0 2.93 2.931 2.93 7.682 0 10.614l-53.1 53.098v84.272c-.001 4.145-3.36 7.504-7.505 7.504z" fill="#9bd069"/></g><g><circle cx="407.639" cy="14.093" fill="#9bd069" r="14.093"/></g><g><circle cx="308.296" cy="14.093" fill="#9bd069" r="14.093"/></g><g><path d="m204.827 120.084c-4.145 0-7.504-3.359-7.504-7.504v-98.487c0-4.145 3.36-7.504 7.504-7.504s7.504 3.359 7.504 7.504v98.487c.001 4.145-3.359 7.504-7.504 7.504z" fill="#9bd069"/></g><g><circle cx="204.828" cy="14.093" fill="#9bd069" r="14.093"/></g><g><path d="m393.562 192.444c-4.145 0-7.504-3.359-7.504-7.504v-84.892c0-3.608 1.405-6.999 3.956-9.551l81.709-81.71c2.931-2.929 7.682-2.929 10.614 0 2.93 2.931 2.93 7.682 0 10.614l-81.27 81.27v84.27c-.001 4.144-3.36 7.503-7.505 7.503z" fill="#9bd069"/></g><g><circle cx="477.03" cy="14.093" fill="#9bd069" r="14.093"/></g></g><g><g><path d="m22.878 327.307c-4.145 0-7.504-3.359-7.504-7.504v-47.761c0-4.137 1.856-7.988 5.093-10.566l73.903-58.862c3.241-2.583 7.963-2.048 10.545 1.194s2.047 7.964-1.195 10.545l-73.337 58.411v47.038c0 4.146-3.36 7.505-7.505 7.505z" fill="#9bd069"/></g><g><path d="m62.963 430.418c-4.145 0-7.504-3.359-7.504-7.504v-118.616c0-4.208 2.004-8.234 5.36-10.774l56.635-42.812c3.307-2.5 8.013-1.846 10.512 1.461 2.5 3.306 1.845 8.012-1.461 10.511l-56.037 42.362v117.868c-.001 4.144-3.361 7.504-7.505 7.504z" fill="#9bd069"/></g><g><circle cx="62.963" cy="422.913" fill="#9bd069" r="14.093"/></g><g><circle cx="22.878" cy="319.803" fill="#9bd069" r="14.093"/></g><g><path d="m489.122 327.307c-4.145 0-7.504-3.359-7.504-7.504v-47.038l-73.338-58.411c-3.241-2.582-3.777-7.303-1.194-10.545 2.582-3.241 7.302-3.778 10.545-1.194l73.904 58.862c3.236 2.58 5.092 6.43 5.092 10.566v47.761c-.001 4.144-3.36 7.503-7.505 7.503zm-6.941-54.093h.011z" fill="#9bd069"/></g><g><path d="m449.037 430.418c-4.145 0-7.504-3.359-7.504-7.504v-117.869l-56.036-42.362c-3.307-2.499-3.96-7.205-1.461-10.511 2.499-3.308 7.203-3.962 10.511-1.461l56.632 42.811c3.358 2.538 5.363 6.566 5.363 10.775v118.615c-.001 4.146-3.36 7.506-7.505 7.506zm-6.909-124.923h.011z" fill="#9bd069"/></g><g><circle cx="449.037" cy="422.913" fill="#9bd069" r="14.093"/></g><g><circle cx="489.122" cy="319.803" fill="#9bd069" r="14.093"/></g></g><g><g><path d="m133.2 505.412c-4.145 0-7.504-3.359-7.504-7.504v-82.316c0-3.608 1.405-7 3.956-9.552l40.889-40.889c2.93-2.929 7.682-2.929 10.613 0 2.931 2.931 2.931 7.682 0 10.614l-40.449 40.449v81.693c-.001 4.145-3.36 7.505-7.505 7.505z" fill="#9bd069"/></g><g><circle cx="133.2" cy="497.907" fill="#9bd069" r="14.093"/></g><g><path d="m378.8 505.412c-4.145 0-7.504-3.359-7.504-7.504v-81.693l-40.45-40.449c-2.93-2.931-2.93-7.682 0-10.614 2.931-2.929 7.682-2.929 10.614 0l40.889 40.889c2.551 2.552 3.956 5.944 3.956 9.552v82.316c0 4.143-3.36 7.503-7.505 7.503zm-7.065-88.758h.011z" fill="#9bd069"/></g><g><circle cx="378.8" cy="497.907" fill="#9bd069" r="14.093"/></g></g><g><g><g><g><path d="m258.138 450.971c-9.378 0-18.753-3.035-26.579-9.108l-66.896-51.919c-22.777-17.679-41.519-40.709-54.2-66.602s-19.383-54.82-19.383-83.652v-111.687c0-5.054 4.078-9.161 9.131-9.198l20.334-.148c57.903-.42 94.034-17.293 112.923-36.183 4.414-4.414 8.111-8.778 11.187-12.874 6.778-9.029 20.326-9.039 27.061.022 3.08 4.143 6.753 8.516 11.089 12.851 18.113 18.113 55.021 35.763 112.924 36.184l20.334.148c5.054.037 9.131 4.144 9.131 9.198v111.687c0 28.832-6.703 57.758-19.383 83.652-12.681 25.894-31.423 48.925-54.2 66.602l-66.895 51.918c-7.823 6.072-17.202 9.109-26.578 9.109z" fill="#766e6e"/></g></g><g><path d="m416.064 118.805-20.334-.148c-24.529-.178-45.275-3.455-62.436-8.542v73.977c0 31.157-7.243 62.417-20.946 90.398-13.704 27.982-33.957 52.87-58.571 71.974l-72.29 56.105c-.094.073-.19.139-.284.211l50.357 39.083c7.825 6.073 17.2 9.108 26.579 9.108 9.376 0 18.755-3.037 26.579-9.109l66.895-51.918c22.777-17.678 41.519-40.708 54.2-66.602 12.68-25.893 19.383-54.82 19.383-83.652v-111.687c-.001-5.054-4.078-9.161-9.132-9.198z" fill="#5b5353"/></g><g><circle cx="258.138" cy="422.913" fill="#766e6e" r="8.598"/></g><g><circle cx="258.138" cy="98.979" fill="#9e9595" r="8.598"/></g><g><circle cx="396.162" cy="149.632" fill="#766e6e" r="8.598"/></g><g><circle cx="119.089" cy="149.632" fill="#9e9595" r="8.598"/></g></g><g><g><path d="m258.138 458.476c-11.228 0-22.302-3.794-31.179-10.685l-66.897-51.919c-23.676-18.376-43.157-42.316-56.338-69.23-13.181-26.915-20.148-56.983-20.148-86.952v-111.687c0-9.144 7.439-16.637 16.582-16.702l20.334-.148c64.582-.469 95.18-21.494 107.671-33.986 3.802-3.802 7.331-7.864 10.492-12.072 4.663-6.213 11.784-9.771 19.541-9.771h.06c7.757.019 14.858 3.598 19.484 9.821 3.169 4.263 6.658 8.308 10.373 12.022 10.056 10.057 40.679 33.5 107.671 33.987l20.334.148c9.142.065 16.581 7.558 16.581 16.702v111.686c0 29.969-6.967 60.036-20.149 86.952-13.18 26.914-32.661 50.854-56.338 69.23l-66.896 51.919c-8.876 6.891-19.95 10.685-31.178 10.685zm.06-388.143c-2.991 0-5.739 1.375-7.54 3.774-3.584 4.773-7.582 9.374-11.881 13.674-14.117 14.117-48.24 37.873-118.176 38.382l-20.335.148c-.927.007-1.681.766-1.681 1.693v111.686c0 27.695 6.438 55.48 18.619 80.351 12.179 24.871 30.182 46.993 52.061 63.975l66.896 51.919c6.35 4.928 13.95 7.533 21.978 7.533 7.914 0 15.719-2.675 21.978-7.533l66.896-51.919c21.88-16.981 39.882-39.103 52.062-63.975s18.618-52.657 18.618-80.351v-111.687c0-.927-.754-1.687-1.681-1.693l-20.335-.148c-72.547-.527-106.812-27.017-118.177-38.382-4.23-4.231-8.202-8.833-11.805-13.682-1.773-2.386-4.499-3.759-7.474-3.766-.008.001-.016.001-.023.001z" fill="#c9beb9"/></g></g><g><path d="" style="fill:none;stroke:#c9beb9;stroke-width:15;stroke-linecap:round;stroke-linejoin:round;stroke-miterlimit:10"/></g></g><g><g><g><path d="m304.319 273.056c-7.854 0-14.221-6.367-14.221-14.221v-50.852c0-18.813-15.306-34.12-34.12-34.12s-34.12 15.306-34.12 34.12v50.852c0 7.854-6.367 14.221-14.221 14.221s-14.221-6.367-14.221-14.221v-50.852c0-34.497 28.066-62.562 62.562-62.562s62.562 28.066 62.562 62.562v50.852c0 7.854-6.367 14.221-14.221 14.221z" fill="#eedfda"/></g></g><g><g><path d="m255.978 145.421c-3.545 0-7.017.312-10.402.881 29.561 4.97 52.16 30.729 52.16 61.681v50.852c0 3.742-1.456 7.136-3.819 9.675 2.596 2.791 6.29 4.547 10.402 4.547 7.854 0 14.221-6.367 14.221-14.221v-50.852c0-34.498-28.066-62.563-62.562-62.563z" fill="#c9beb9"/></g></g><g><path d="m316.545 352.55h-116.814c-9.626 0-17.429-7.803-17.429-17.429v-76.107c0-9.626 7.803-17.429 17.429-17.429h116.814c9.626 0 17.429 7.803 17.429 17.429v76.107c.001 9.625-7.803 17.429-17.429 17.429z" fill="#f9f6f6"/></g><g><path d="m318.894 241.583h-12.964v67.842c0 8.329-6.752 15.081-15.081 15.081h-108.548v12.964c0 8.329 6.752 15.081 15.081 15.081h121.512c8.329 0 15.081-6.752 15.081-15.081v-80.805c0-8.33-6.752-15.082-15.081-15.082z" fill="#eedfda"/></g><g><path d="m275.597 292.232c0-9.509-8.004-17.148-17.643-16.547-8.241.514-14.952 7.21-15.483 15.449-.458 7.101 3.559 13.317 9.504 16.109.466.219.776.673.776 1.188v14.888c0 1.091.885 1.976 1.976 1.976h8.58c1.091 0 1.976-.885 1.976-1.976v-14.856c0-.511.284-.989.747-1.206 5.65-2.642 9.567-8.374 9.567-15.025z" fill="#766e6e"/></g><path d="m257.954 275.685c-2.612.163-5.068.95-7.225 2.208 4.949 2.869 8.287 8.208 8.287 14.34 0 6.135-3.338 11.484-8.292 14.351.407.236.822.459 1.25.661.466.219.776.673.776 1.188v14.888c0 1.091.885 1.976 1.976 1.976h8.58c1.091 0 1.976-.885 1.976-1.976v-14.856c0-.511.284-.99.747-1.206 5.651-2.642 9.568-8.375 9.568-15.025-.001-9.51-8.005-17.15-17.643-16.549z" fill="#5b5353"/></g></g></svg>