<?xml version="1.0" encoding="iso-8859-1"?>
<!-- Generator: Adobe Illustrator 19.0.0, SVG Export Plug-In . SVG Version: 6.00 Build 0)  -->
<svg version="1.1" id="Capa_1" xmlns="http://www.w3.org/2000/svg" xmlns:xlink="http://www.w3.org/1999/xlink" x="0px" y="0px"
	 viewBox="0 0 512 512" style="enable-background:new 0 0 512 512;" xml:space="preserve">
<circle style="fill:#F24976;" cx="256" cy="267" r="245"/>
<path style="fill:#AEC1ED;" d="M50,399.664c14.013,21.714,31.367,41.064,51.332,57.336h309.336
	c19.965-16.272,37.319-35.623,51.332-57.336V59H50V399.664z"/>
<path style="fill:#85A0DD;" d="M50,59v340.664c6.016,9.323,12.652,18.206,19.843,26.601V59H50z"/>
<g>
	<path style="fill:#EEF6FF;" d="M419.516,89.036H92.484c-2.75,0-5,2.25-5,5v68.382c0,2.75,2.25,5,5,5h80.031
		c4.421-42.162,40.172-75.135,83.484-75.135c43.314,0,79.065,32.973,83.485,75.135h80.03c2.75,0,5-2.25,5-5V94.036
		C424.516,91.286,422.266,89.036,419.516,89.036z"/>
	<path style="fill:#EEF6FF;" d="M256,130.283c-22.321,0-40.968,16.002-45.093,37.135h90.187
		C296.969,146.285,278.322,130.283,256,130.283z"/>
	<path style="fill:#EEF6FF;" d="M419.516,199.726H92.484c-2.75,0-5,2.25-5,5v18.503c0,2.75,2.25,5,5,5h48.153
		c2.081-1.951,4.868-3.156,7.939-3.156h214.847c3.069,0,5.858,1.205,7.938,3.156h48.154c2.75,0,5-2.25,5-5v-18.503
		C424.516,201.976,422.266,199.726,419.516,199.726z"/>
	<path style="fill:#EEF6FF;" d="M136.95,238.724H92.484c-2.75,0-5,2.25-5,5v18.504c0,2.75,2.25,5,5,5h44.466V238.724z"/>
	<path style="fill:#EEF6FF;" d="M419.516,238.724h-44.467v28.504h44.467c2.75,0,5-2.25,5-5v-18.504
		C424.516,240.974,422.266,238.724,419.516,238.724z"/>
	<path style="fill:#EEF6FF;" d="M136.95,277.722H92.484c-2.75,0-5,2.25-5,5v18.503c0,2.75,2.25,5,5,5h44.466V277.722z"/>
	<path style="fill:#EEF6FF;" d="M419.516,277.722h-44.467v28.503h44.467c2.75,0,5-2.25,5-5v-18.503
		C424.516,279.972,422.266,277.722,419.516,277.722z"/>
	<path style="fill:#EEF6FF;" d="M136.95,316.72H92.484c-2.75,0-5,2.25-5,5v18.503c0,2.75,2.25,5,5,5h44.466V316.72z"/>
	<path style="fill:#EEF6FF;" d="M419.516,316.72h-44.467v28.503h44.467c2.75,0,5-2.25,5-5V321.72
		C424.516,318.97,422.266,316.72,419.516,316.72z"/>
	<path style="fill:#EEF6FF;" d="M136.95,355.718H92.484c-2.75,0-5,2.25-5,5v18.503c0,2.75,2.25,5,5,5h44.466V355.718z"/>
	<path style="fill:#EEF6FF;" d="M419.516,355.718h-44.467v28.503h44.467c2.75,0,5-2.25,5-5v-18.503
		C424.516,357.968,422.266,355.718,419.516,355.718z"/>
	<path style="fill:#EEF6FF;" d="M419.516,394.716h-44.467v2.363c0,6.411-5.216,11.626-11.626,11.626H148.576
		c-6.41,0-11.626-5.215-11.626-11.626v-2.363H92.484c-2.75,0-5,2.25-5,5v18.503c0,2.75,2.25,5,5,5h327.031c2.75,0,5-2.25,5-5
		v-18.503C424.516,396.966,422.266,394.716,419.516,394.716z"/>
</g>
<g>
	<path style="fill:#D9EAFC;" d="M107.327,162.418V94.036c0-2.75,2.25-5,5-5H92.484c-2.75,0-5,2.25-5,5v68.382c0,2.75,2.25,5,5,5
		h19.843C109.577,167.418,107.327,165.168,107.327,162.418z"/>
	<path style="fill:#D9EAFC;" d="M107.327,223.229v-18.503c0-2.75,2.25-5,5-5H92.484c-2.75,0-5,2.25-5,5v18.503c0,2.75,2.25,5,5,5
		h19.843C109.577,228.229,107.327,225.979,107.327,223.229z"/>
	<path style="fill:#D9EAFC;" d="M107.327,262.227v-18.504c0-2.75,2.25-5,5-5H92.484c-2.75,0-5,2.25-5,5v18.504c0,2.75,2.25,5,5,5
		h19.843C109.577,267.227,107.327,264.977,107.327,262.227z"/>
	<path style="fill:#D9EAFC;" d="M107.327,301.225v-18.503c0-2.75,2.25-5,5-5H92.484c-2.75,0-5,2.25-5,5v18.503c0,2.75,2.25,5,5,5
		h19.843C109.577,306.225,107.327,303.975,107.327,301.225z"/>
	<path style="fill:#D9EAFC;" d="M107.327,340.223V321.72c0-2.75,2.25-5,5-5H92.484c-2.75,0-5,2.25-5,5v18.503c0,2.75,2.25,5,5,5
		h19.843C109.577,345.223,107.327,342.973,107.327,340.223z"/>
	<path style="fill:#D9EAFC;" d="M107.327,379.221v-18.503c0-2.75,2.25-5,5-5H92.484c-2.75,0-5,2.25-5,5v18.503c0,2.75,2.25,5,5,5
		h19.843C109.577,384.221,107.327,381.971,107.327,379.221z"/>
	<path style="fill:#D9EAFC;" d="M107.327,418.219v-18.503c0-2.75,2.25-5,5-5H92.484c-2.75,0-5,2.25-5,5v18.503c0,2.75,2.25,5,5,5
		h19.843C109.577,423.219,107.327,420.969,107.327,418.219z"/>
</g>
<path style="fill:#445EA0;" d="M211.05,225.073v-48.839c0-24.786,20.165-44.951,44.95-44.951c24.786,0,44.951,20.165,44.951,44.951
	v48.839h40v-48.839c0-46.842-38.109-84.951-84.951-84.951s-84.95,38.109-84.95,84.951v48.839H211.05z"/>
<path style="fill:#293D7C;" d="M190.893,225.073v-48.839c0-43.484,32.848-79.421,75.029-84.353
	c-3.258-0.381-6.565-0.599-9.922-0.599c-46.842,0-84.95,38.109-84.95,84.951v48.839L190.893,225.073L190.893,225.073z"/>
<path style="fill:#FF9518;" d="M376.049,397.079c0,6.944-5.682,12.626-12.626,12.626H148.576c-6.944,0-12.626-5.682-12.626-12.626
	v-160.38c0-6.944,5.682-12.626,12.626-12.626h214.847c6.944,0,12.626,5.682,12.626,12.626V397.079z"/>
<path style="fill:#EF8318;" d="M155.793,397.079v-160.38c0-6.944,5.682-12.626,12.626-12.626h-19.843
	c-6.944,0-12.626,5.682-12.626,12.626v160.379c0,6.944,5.682,12.626,12.626,12.626h19.843
	C161.475,409.705,155.793,404.023,155.793,397.079z"/>
<g>
	<path style="fill:#DB722C;" d="M279.99,281.298c0-13.249-10.741-23.989-23.99-23.989c-13.248,0-23.989,10.741-23.989,23.989
		c0,10.629,6.915,19.637,16.489,22.787v39.081c0,4.142,3.357,7.5,7.5,7.5c4.143,0,7.5-3.358,7.5-7.5v-39.081
		C273.074,300.936,279.99,291.927,279.99,281.298z"/>
	<path style="fill:#DB722C;" d="M135.95,375.993v21.085c0,6.944,5.682,12.626,12.626,12.626h214.847
		c6.944,0,12.626-5.682,12.626-12.626v-21.085H135.95z"/>
</g>
<path style="fill:#293D7C;" d="M452,0H60c-5.5,0-10,4.5-10,10v50h412V10C462,4.5,457.5,0,452,0z"/>
<path style="fill:#E26693;" d="M80.353,40.287c-2.139,0-4.224-0.865-5.735-2.366c-1.502-1.512-2.366-3.597-2.366-5.735
	c0-2.129,0.864-4.213,2.366-5.725c1.512-1.513,3.597-2.376,5.735-2.376c2.128,0,4.224,0.864,5.725,2.376
	c1.513,1.512,2.377,3.596,2.377,5.725c0,2.138-0.864,4.223-2.377,5.735C84.576,39.422,82.48,40.287,80.353,40.287z"/>
<path style="fill:#FFAF10;" d="M106.92,40.287c-2.128,0-4.224-0.865-5.726-2.377c-1.512-1.501-2.376-3.586-2.376-5.724
	c0-2.129,0.864-4.213,2.376-5.725c1.513-1.513,3.598-2.376,5.726-2.376c2.139,0,4.223,0.864,5.736,2.376
	c1.501,1.512,2.365,3.596,2.365,5.725c0,2.128-0.864,4.223-2.365,5.724C111.143,39.422,109.059,40.287,106.92,40.287z"/>
<path style="fill:#37C47A;" d="M133.498,40.287c-2.139,0-4.224-0.865-5.725-2.366c-1.513-1.512-2.377-3.597-2.377-5.735
	c0-2.129,0.864-4.213,2.377-5.725c1.501-1.513,3.586-2.376,5.725-2.376c2.128,0,4.224,0.864,5.725,2.376
	c1.513,1.512,2.377,3.596,2.377,5.725c0,2.138-0.864,4.223-2.377,5.735C137.711,39.422,135.626,40.287,133.498,40.287z"/>
<g>
</g>
<g>
</g>
<g>
</g>
<g>
</g>
<g>
</g>
<g>
</g>
<g>
</g>
<g>
</g>
<g>
</g>
<g>
</g>
<g>
</g>
<g>
</g>
<g>
</g>
<g>
</g>
<g>
</g>
</svg>
