<svg height="512" viewBox="0 0 64 64" width="512" xmlns="http://www.w3.org/2000/svg" xmlns:xlink="http://www.w3.org/1999/xlink"><linearGradient id="New_Gradient_Swatch_3" gradientUnits="userSpaceOnUse" x1="32" x2="32" y1="64.507" y2=".29"><stop offset="0" stop-color="#006df0"/><stop offset="1" stop-color="#00e7f0"/></linearGradient><linearGradient id="New_Gradient_Swatch_3-3" x1="36" x2="36" xlink:href="#New_Gradient_Swatch_3" y1="64.507" y2=".29"/><linearGradient id="New_Gradient_Swatch_3-4" x1="28" x2="28" xlink:href="#New_Gradient_Swatch_3" y1="64.507" y2=".29"/><linearGradient id="New_Gradient_Swatch_3-6" x1="52.146" x2="52.146" xlink:href="#New_Gradient_Swatch_3" y1="64.507" y2=".29"/><linearGradient id="New_Gradient_Swatch_3-7" x1="52" x2="52" xlink:href="#New_Gradient_Swatch_3" y1="64.507" y2=".29"/><linearGradient id="New_Gradient_Swatch_3-8" x1="11.854" x2="11.854" xlink:href="#New_Gradient_Swatch_3" y1="64.507" y2=".29"/><linearGradient id="New_Gradient_Swatch_3-9" x1="12" x2="12" xlink:href="#New_Gradient_Swatch_3" y1="64.507" y2=".29"/><linearGradient id="New_Gradient_Swatch_3-10" x1="48.723" x2="48.723" xlink:href="#New_Gradient_Swatch_3" y1="64.507" y2=".29"/><linearGradient id="New_Gradient_Swatch_3-11" x1="15.158" x2="15.158" xlink:href="#New_Gradient_Swatch_3" y1="64.507" y2=".29"/><linearGradient id="New_Gradient_Swatch_3-12" x1="27" x2="27" xlink:href="#New_Gradient_Swatch_3" y1="64.507" y2=".29"/><linearGradient id="New_Gradient_Swatch_3-13" x1="37" x2="37" xlink:href="#New_Gradient_Swatch_3" y1="64.507" y2=".29"/><g id="Data_encryption-2" data-name="Data encryption"><path d="m61 52h-1v-29a5.006 5.006 0 0 0 -5-5h-11v-1a5.006 5.006 0 0 0 -5-5v-3a7 7 0 0 0 -14 0v3a5.006 5.006 0 0 0 -5 5v1h-11a5.006 5.006 0 0 0 -5 5v29h-1a1 1 0 0 0 -1 1v4a5.006 5.006 0 0 0 5 5h50a5.006 5.006 0 0 0 5-5v-4a1 1 0 0 0 -1-1zm-36-16h14a5.006 5.006 0 0 0 5-5v-7h10v24h-44v-24h10v7a5.006 5.006 0 0 0 5 5zm2-27a5 5 0 0 1 10 0v3h-10zm-5 8a3 3 0 0 1 3-3h14a3 3 0 0 1 3 3v14a3 3 0 0 1 -3 3h-14a3 3 0 0 1 -3-3zm-16 6a3 3 0 0 1 3-3h11v2h-11a1 1 0 0 0 -1 1v26a1 1 0 0 0 1 1h46a1 1 0 0 0 1-1v-26a1 1 0 0 0 -1-1h-11v-2h11a3 3 0 0 1 3 3v29h-18a1 1 0 0 0 -1 1v2a1 1 0 0 1 -1 1h-12a1 1 0 0 1 -1-1v-2a1 1 0 0 0 -1-1h-18zm54 34a3 3 0 0 1 -3 3h-50a3 3 0 0 1 -3-3v-3h19v1a3 3 0 0 0 3 3h12a3 3 0 0 0 3-3v-1h19z" fill="url(#New_Gradient_Swatch_3)"/><path d="m31 52h2v2h-2z" fill="url(#New_Gradient_Swatch_3)"/><path d="m35 52h2v2h-2z" fill="url(#New_Gradient_Swatch_3-3)"/><path d="m27 52h2v2h-2z" fill="url(#New_Gradient_Swatch_3-4)"/><path d="m31 23.858v8.142h2v-1h2v-2h-2v-1h2v-2h-2v-2.142a4 4 0 1 0 -2 0zm1-5.858a2 2 0 1 1 -2 2 2 2 0 0 1 2-2z" fill="url(#New_Gradient_Swatch_3)"/><path d="m47.414 6h8.77a3 3 0 1 0 0-2h-9.6l-4.291 4.293 1.414 1.414zm11.586-2a1 1 0 1 1 -1 1 1 1 0 0 1 1-1z" fill="url(#New_Gradient_Swatch_3-6)"/><path d="m52.184 12h-6.184v2h6.184a3 3 0 1 0 0-2zm3.816 1a1 1 0 1 1 -1-1 1 1 0 0 1 1 1z" fill="url(#New_Gradient_Swatch_3-7)"/><path d="m5 8a3 3 0 0 0 2.816-2h8.77l3.707 3.707 1.414-1.414-4.293-4.293h-9.6a2.995 2.995 0 1 0 -2.814 4zm0-4a1 1 0 1 1 -1 1 1 1 0 0 1 1-1z" fill="url(#New_Gradient_Swatch_3-8)"/><path d="m9 10a3 3 0 1 0 2.816 4h6.184v-2h-6.184a3 3 0 0 0 -2.816-2zm0 4a1 1 0 1 1 1-1 1 1 0 0 1 -1 1z" fill="url(#New_Gradient_Swatch_3-9)"/><path d="m48 38.184a3 3 0 1 0 2 0v-7.719l-3.445-2.3-1.11 1.664 2.555 1.706zm1 3.816a1 1 0 1 1 1-1 1 1 0 0 1 -1 1z" fill="url(#New_Gradient_Swatch_3-10)"/><path d="m18.316 29.949-.632-1.9-3.684 1.23v8.9a3 3 0 1 0 2 0v-7.458zm-3.316 12.051a1 1 0 1 1 1-1 1 1 0 0 1 -1 1z" fill="url(#New_Gradient_Swatch_3-11)"/><path d="m27 46a2.993 2.993 0 0 0 1-5.816v-2.184h-2v2.184a2.993 2.993 0 0 0 1 5.816zm0-4a1 1 0 1 1 -1 1 1 1 0 0 1 1-1z" fill="url(#New_Gradient_Swatch_3-12)"/><path d="m37 46a2.993 2.993 0 0 0 1-5.816v-2.184h-2v2.184a2.993 2.993 0 0 0 1 5.816zm0-4a1 1 0 1 1 -1 1 1 1 0 0 1 1-1z" fill="url(#New_Gradient_Swatch_3-13)"/></g></svg>