<?xml version="1.0" encoding="iso-8859-1"?>
<!-- Generator: Adobe Illustrator 19.0.0, SVG Export Plug-In . SVG Version: 6.00 Build 0)  -->
<svg version="1.1" id="Capa_1" xmlns="http://www.w3.org/2000/svg" xmlns:xlink="http://www.w3.org/1999/xlink" x="0px" y="0px"
	 viewBox="0 0 480 480" style="enable-background:new 0 0 480 480;" xml:space="preserve">
<g>
	<path style="fill:#FFF0DD;" d="M8,400h464V80H8V400z M288,192c0-8.837,7.163-16,16-16h32c8.837,0,16,7.163,16,16v96
		c0,8.837-7.163,16-16,16h-32c-8.837,0-16-7.163-16-16V192z M240,240h-32c-8.837,0-16-7.163-16-16v-32c0-8.837,7.163-16,16-16h32
		c8.837,0,16,7.163,16,16c0-8.837-7.163-16-16-16h-32c-8.837,0-16,7.163-16,16v32c0,8.837,7.163,16,16,16H240
		c8.837,0,16,7.163,16,16v32c0,8.837-7.163,16-16,16h-32c-8.837,0-16-7.163-16-16c0,8.837,7.163,16,16,16h32c8.837,0,16-7.163,16-16
		v-32C256,247.163,248.837,240,240,240z M127.776,176H144v128V176H127.776z"/>
	<path style="fill:#FFF0DD;" d="M304,176h32c8.837,0,16,7.163,16,16v96c0,8.837-7.163,16-16,16h-32c-8.837,0-16-7.163-16-16v-96
		C288,183.163,295.163,176,304,176z"/>
</g>
<g>
	<path style="fill:#231F20;" d="M472,408H8c-4.418,0-8-3.582-8-8V80c0-4.418,3.582-8,8-8h464c4.418,0,8,3.582,8,8v320
		C480,404.418,476.418,408,472,408z M16,392h448V88H16V392z"/>
	<path style="fill:#231F20;" d="M56,360h16v16H56V360z"/>
	<path style="fill:#231F20;" d="M24,360h16v16H24V360z"/>
	<path style="fill:#231F20;" d="M88,360h16v16H88V360z"/>
	<path style="fill:#231F20;" d="M120,360h16v16h-16V360z"/>
	<path style="fill:#231F20;" d="M152,360h16v16h-16V360z"/>
	<path style="fill:#231F20;" d="M184,360h16v16h-16V360z"/>
	<path style="fill:#231F20;" d="M216,360h16v16h-16V360z"/>
	<path style="fill:#231F20;" d="M248,360h16v16h-16V360z"/>
	<path style="fill:#231F20;" d="M280,360h16v16h-16V360z"/>
	<path style="fill:#231F20;" d="M312,360h16v16h-16V360z"/>
	<path style="fill:#231F20;" d="M344,360h16v16h-16V360z"/>
	<path style="fill:#231F20;" d="M376,360h16v16h-16V360z"/>
	<path style="fill:#231F20;" d="M408,360h16v16h-16V360z"/>
	<path style="fill:#231F20;" d="M440,360h16v16h-16V360z"/>
	<path style="fill:#231F20;" d="M160,184c4.418,0,8-3.582,8-8s-3.582-8-8-8h-32.224c-4.418,0-8,3.582-8,8s3.582,8,8,8H136v112
		h-8.224c-4.418,0-8,3.582-8,8s3.582,8,8,8H160c4.418,0,8-3.582,8-8s-3.582-8-8-8h-8V184H160z"/>
	<path style="fill:#231F20;" d="M208,184h32c4.418,0,8,3.582,8,8s3.582,8,8,8s8-3.582,8-8c0-13.255-10.745-24-24-24h-32
		c-13.255,0-24,10.745-24,24v32c0,13.255,10.745,24,24,24h32c4.418,0,8,3.582,8,8v32c0,4.418-3.582,8-8,8h-32c-4.418,0-8-3.582-8-8
		s-3.582-8-8-8s-8,3.582-8,8c0,13.255,10.745,24,24,24h32c13.255,0,24-10.745,24-24v-32c0-13.255-10.745-24-24-24h-32
		c-4.418,0-8-3.582-8-8v-32C200,187.582,203.582,184,208,184z"/>
	<path style="fill:#231F20;" d="M336,168h-32c-13.255,0-24,10.745-24,24v96c0,13.255,10.745,24,24,24h32c13.255,0,24-10.745,24-24
		v-96C360,178.745,349.255,168,336,168z M344,288c0,4.418-3.582,8-8,8h-32c-4.418,0-8-3.582-8-8v-96c0-4.418,3.582-8,8-8h32
		c4.418,0,8,3.582,8,8V288z"/>
</g>
<g>
</g>
<g>
</g>
<g>
</g>
<g>
</g>
<g>
</g>
<g>
</g>
<g>
</g>
<g>
</g>
<g>
</g>
<g>
</g>
<g>
</g>
<g>
</g>
<g>
</g>
<g>
</g>
<g>
</g>
</svg>
