<svg height="512" viewBox="0 0 58 58" width="512" xmlns="http://www.w3.org/2000/svg"><g id="Page-1" fill="none" fill-rule="evenodd"><g id="004---Camera" fill-rule="nonzero"><path id="Shape" d="m5 16h10c.5522847 0 1 .4477153 1 1v4h-12v-4c0-.5522847.44771525-1 1-1z" fill="#547580"/><path id="Shape" d="m21 16h4c.5522847 0 1 .4477153 1 1v4h-6v-4c0-.5522847.4477153-1 1-1z" fill="#547580"/><path id="Shape" d="m53 20-9 2-9-2-1-4 10-2 10 2z" fill="#3f5c6c"/><path id="Shape" d="m58 22v8l-30 5-28-5v-8c.0032948-1.1032019.89679813-1.9967052 2-2h54c1.1032019.0032948 1.9967052.8967981 2 2z" fill="#ecf0f1"/><path id="Shape" d="m58 30v26c-.0032948 1.1032019-.8967981 1.9967052-2 2h-54c-1.10320187-.0032948-1.9967052-.8967981-2-2v-26z" fill="#26b99a"/><rect id="Rectangle-path" fill="#547580" height="16" rx="2" width="24" x="32"/><rect id="Rectangle-path" fill="#f3d55b" height="8" rx="1" width="16" x="36" y="4"/><path id="Shape" d="m52 8v3c0 .5522847-.4477153 1-1 1h-14c-.5522847 0-1-.4477153-1-1v-3z" fill="#f0c419"/><circle id="Oval" cx="29" cy="41" fill="#35495e" r="13"/><circle id="Oval" cx="29" cy="41" fill="#2c3e50" r="11"/><path id="Shape" d="m38 41c-.0040029 4.5427915-3.3928299 8.370414-7.9016687 8.9248003-4.5088387.5543863-8.723963-2.3382891-9.8283313-6.7448003-.1813441-.7124159-.2720608-1.4448688-.27-2.18 0-4.9705627 4.0294373-9 9-9 1.2884529-.0037929 2.5619363.2761686 3.73.82 3.2109594 1.4547613 5.2726392 4.654864 5.27 8.18z" fill="#2fa8cc"/><path id="Shape" d="m33 35c0 4.9705627-4.0294373 9-9 9-1.2884529.0037929-2.5619363-.2761686-3.73-.82-.1813441-.7124159-.2720608-1.4448688-.27-2.18 0-4.9705627 4.0294373-9 9-9 1.2884529-.0037929 2.5619363.2761686 3.73.82.1813441.7124159.2720608 1.4448688.27 2.18z" fill="#67b9cc"/><g fill="#14a085"><path id="Shape" d="m5 52c0 .5522847-.44771525 1-1 1h-4v-2h4c.55228475 0 1 .4477153 1 1z"/><path id="Shape" d="m5 48c0 .5522847-.44771525 1-1 1h-4v-2h4c.55228475 0 1 .4477153 1 1z"/><path id="Shape" d="m5 44c0 .5522847-.44771525 1-1 1h-4v-2h4c.55228475 0 1 .4477153 1 1z"/><path id="Shape" d="m5 40c0 .5522847-.44771525 1-1 1h-4v-2h4c.55228475 0 1 .4477153 1 1z"/><path id="Shape" d="m58 51v2h-4c-.5522847 0-1-.4477153-1-1s.4477153-1 1-1z"/><path id="Shape" d="m58 47v2h-4c-.5522847 0-1-.4477153-1-1s.4477153-1 1-1z"/><path id="Shape" d="m58 43v2h-4c-.5522847 0-1-.4477153-1-1s.4477153-1 1-1z"/><path id="Shape" d="m58 39v2h-4c-.5522847 0-1-.4477153-1-1s.4477153-1 1-1z"/></g><path id="Shape" d="m11 26h-7c-.55228475 0-1-.4477153-1-1s.44771525-1 1-1h7c.5522847 0 1 .4477153 1 1s-.4477153 1-1 1z" fill="#f3d55b"/></g></g></svg>