<svg id="Layer_1" enable-background="new 0 0 512 512" height="512" viewBox="0 0 512 512" width="512" xmlns="http://www.w3.org/2000/svg"><g id="XMLID_752_"><g id="XMLID_250_"><g><g id="XMLID_675_"><g id="XMLID_677_"><g id="XMLID_678_"><g id="XMLID_679_"><g id="XMLID_682_"><g id="XMLID_683_"><g id="XMLID_684_"><g id="XMLID_685_"><g id="XMLID_688_"><g id="XMLID_689_"><g id="XMLID_691_"><g id="XMLID_692_"><g id="XMLID_694_"><circle id="XMLID_695_" cx="256" cy="256" fill="#45f6ff" r="256"/></g></g></g></g></g></g></g></g></g></g></g></g></g></g></g><g id="XMLID_846_"><path id="XMLID_849_" d="m512 256c0-32.223-5.97-63.047-16.837-91.449l-90.217-90.217-297.892 363.333 57.495 57.495c28.403 10.868 59.227 16.838 91.451 16.838 141.385 0 256-114.615 256-256z" fill="#2ebeef"/></g><g id="XMLID_615_"><g id="XMLID_1515_"><path id="XMLID_1460_" d="m107.054 74.334h297.892v341.496h-297.892z" fill="#fff"/><path id="XMLID_1459_" d="m256 74.331h148.941v341.502h-148.941z" fill="#fff5ca"/></g><g id="XMLID_1644_"><g id="XMLID_1641_"><path id="XMLID_1571_" d="m137.054 138.702h88.946v30h-88.946z" fill="#324a5e"/></g><g id="XMLID_1647_"><path id="XMLID_1751_" d="m137.054 215.999h88.946v30h-88.946z" fill="#324a5e"/></g><g id="XMLID_1753_"><path id="XMLID_1771_" d="m137.054 293.297h88.946v30h-88.946z" fill="#324a5e"/></g><g id="XMLID_296_"><path id="XMLID_297_" d="m107.054 393.999h297.888v43.668h-297.888z" fill="#ffef4a"/></g><g id="XMLID_203_"><path id="XMLID_548_" d="m255.999 393.999h148.94v43.67h-148.94z" fill="#ffd321"/></g></g><g id="XMLID_1645_"><path id="XMLID_1749_" d="m370.127 161.554-21.213-21.213-15.401 15.401-15.401-15.401-21.213 21.213 15.401 15.401-15.401 15.402 21.213 21.213 15.401-15.401 15.401 15.401 21.213-21.213-15.401-15.402z" fill="#ff6326"/><path id="XMLID_1687_" d="m353.494 253.414-25.816 25.816-16.394-16.393-21.213 21.213 37.606 37.607 47.03-47.03z" fill="#00cfb4"/></g></g></g></svg>