<svg id="Capa_1" enable-background="new 0 0 512 512" height="512" viewBox="0 0 512 512" width="512" xmlns="http://www.w3.org/2000/svg"><g><path d="m430.943 0h-349.891c-5.333 0-9.656 4.323-9.656 9.656v492.688c0 5.333 4.323 9.656 9.656 9.656h275.814l83.733-87.111v-415.233c0-5.333-4.323-9.656-9.656-9.656z" fill="#faf7f7"/><path d="m440.604 9.652v415.239l-20.083 20.895v-436.134c0-5.324-4.317-9.651-9.651-9.651h20.073c5.334 0 9.661 4.327 9.661 9.651z" fill="#ede1dd"/><path d="m356.866 512v-77.455c0-5.333 4.323-9.656 9.656-9.656h74.077z" fill="#e1d3ce"/><circle cx="246.648" cy="256" fill="#d4f2f6" r="106.643"/><path d="m353.291 256c0 58.894-47.742 106.647-106.646 106.647-22.828 0-43.98-7.174-61.32-19.395 13.228 5.889 27.874 9.158 43.281 9.158 58.894 0 106.636-47.753 106.636-106.647 0-36.076-17.915-67.97-45.327-87.252 37.341 16.579 63.376 53.992 63.376 97.489z" fill="#a6e7f0"/><g><path d="m257.055 306.96c-.045 0-.089 0-.134-.001-6.02-.038-11.727-2.686-15.646-7.257l-41.626-48.564c-7.469-8.714-6.46-21.834 2.254-29.303 8.714-7.47 21.834-6.46 29.303 2.254l26.05 30.392 78.345-89.067c7.58-8.618 20.712-9.459 29.33-1.879 8.618 7.581 9.459 20.712 1.879 29.33l-94.153 107.038c-3.945 4.488-9.631 7.057-15.602 7.057z" fill="#a2aee6"/></g><g><path d="m366.807 192.861-94.148 107.047c-3.947 4.481-9.631 7.051-15.602 7.051h-.134c-6.023-.041-11.727-2.683-15.643-7.256l-2.189-2.559c.421.031.843.051 1.274.051h.144c6.177 0 12.056-2.662 16.137-7.297l97.396-110.727c4.841-5.499 6.362-12.786 4.707-19.395 2.21.853 4.306 2.107 6.187 3.762 8.613 7.574 9.456 20.71 1.871 29.323z" fill="#8795de"/></g></g></svg>