<svg height="512" viewBox="0 0 64 64" width="512" xmlns="http://www.w3.org/2000/svg" xmlns:xlink="http://www.w3.org/1999/xlink"><linearGradient id="New_Gradient_Swatch_1" gradientUnits="userSpaceOnUse" x1="11" x2="11" y1="-2.648" y2="68.334"><stop offset="0" stop-color="#fff33b"/><stop offset=".014" stop-color="#fee72e"/><stop offset=".042" stop-color="#fed51b"/><stop offset=".07" stop-color="#fdca10"/><stop offset=".1" stop-color="#fdc70c"/><stop offset=".4" stop-color="#f3903f"/><stop offset=".8" stop-color="#ed683c"/><stop offset="1" stop-color="#e93e3a"/></linearGradient><linearGradient id="New_Gradient_Swatch_1-2" x1="53" x2="53" xlink:href="#New_Gradient_Swatch_1" y1="-2.648" y2="68.334"/><linearGradient id="New_Gradient_Swatch_1-3" x1="32" x2="32" xlink:href="#New_Gradient_Swatch_1" y1="-2.648" y2="68.334"/><linearGradient id="New_Gradient_Swatch_1-7" x1="23" x2="23" xlink:href="#New_Gradient_Swatch_1" y1="-2.648" y2="68.334"/><linearGradient id="New_Gradient_Swatch_1-8" x1="41" x2="41" xlink:href="#New_Gradient_Swatch_1" y1="-2.648" y2="68.334"/><linearGradient id="New_Gradient_Swatch_1-9" x1="12" x2="12" xlink:href="#New_Gradient_Swatch_1" y1="-2.648" y2="68.334"/><linearGradient id="New_Gradient_Swatch_1-10" x1="8" x2="8" xlink:href="#New_Gradient_Swatch_1" y1="-2.648" y2="68.334"/><linearGradient id="New_Gradient_Swatch_1-17" x1="52" x2="52" xlink:href="#New_Gradient_Swatch_1" y1="-2.648" y2="68.334"/><linearGradient id="New_Gradient_Swatch_1-18" x1="56" x2="56" xlink:href="#New_Gradient_Swatch_1" y1="-2.648" y2="68.334"/><g id="laptop-share-network-smartphone-smartphones"><path d="m17 34h-12a3.009 3.009 0 0 0 -3 3v22a3.009 3.009 0 0 0 3 3h12a3.009 3.009 0 0 0 3-3v-22a3.009 3.009 0 0 0 -3-3zm-3.28 2-.5 2h-4.44l-.5-2zm4.28 23a1 1 0 0 1 -1 1h-12a1 1 0 0 1 -1-1v-22a1 1 0 0 1 1-1h1.22l.81 3.24a1 1 0 0 0 .97.76h6a1 1 0 0 0 .97-.76l.81-3.24h1.22a1 1 0 0 1 1 1z" fill="url(#New_Gradient_Swatch_1)"/><path d="m59 34h-12a3.009 3.009 0 0 0 -3 3v22a3.009 3.009 0 0 0 3 3h12a3.009 3.009 0 0 0 3-3v-22a3.009 3.009 0 0 0 -3-3zm-3.28 2-.5 2h-4.44l-.5-2zm4.28 23a1 1 0 0 1 -1 1h-12a1 1 0 0 1 -1-1v-22a1 1 0 0 1 1-1h1.22l.81 3.24a1 1 0 0 0 .97.76h6a1 1 0 0 0 .97-.76l.81-3.24h1.22a1 1 0 0 1 1 1z" fill="url(#New_Gradient_Swatch_1-2)"/><path d="m50 24h-1v-17a5 5 0 0 0 -5-5h-24a5 5 0 0 0 -5 5v17h-1a1 1 0 0 0 -1 1v2a5 5 0 0 0 5 5h28a5 5 0 0 0 5-5v-2a1 1 0 0 0 -1-1zm-33-17a3.009 3.009 0 0 1 3-3h24a3.009 3.009 0 0 1 3 3v17h-2v-16a2.006 2.006 0 0 0 -2-2h-22a2.006 2.006 0 0 0 -2 2v16h-2zm26 1v16h-22v-16zm6 19a3.009 3.009 0 0 1 -3 3h-28a3.009 3.009 0 0 1 -3-3v-1h34z" fill="url(#New_Gradient_Swatch_1-3)"/><path d="m34.82 47a3.035 3.035 0 0 0 -1.82-1.82v-3.18h-2v3.18a3.035 3.035 0 0 0 -1.82 1.82h-3.18v2h3.18a2.988 2.988 0 0 0 5.64 0h3.18v-2zm-2.82 2a1 1 0 1 1 1-1 1 1 0 0 1 -1 1z" fill="url(#New_Gradient_Swatch_1-3)"/><path d="m31 34h2v2h-2z" fill="url(#New_Gradient_Swatch_1-3)"/><path d="m31 38h2v2h-2z" fill="url(#New_Gradient_Swatch_1-3)"/><path d="m22 47h2v2h-2z" fill="url(#New_Gradient_Swatch_1-7)"/><path d="m40 47h2v2h-2z" fill="url(#New_Gradient_Swatch_1-8)"/><path d="m11 6h2v2h-2z" fill="url(#New_Gradient_Swatch_1-9)"/><g fill="url(#New_Gradient_Swatch_1-10)"><path d="m7 6h2v2h-2z"/><path d="m7 10h2v2h-2z"/><path d="m7 14h2v2h-2z"/><path d="m7 18h2v2h-2z"/><path d="m7 22h2v2h-2z"/><path d="m7 26h2v2h-2z"/><path d="m7 30h2v2h-2z"/></g><path d="m51 6h2v2h-2z" fill="url(#New_Gradient_Swatch_1-17)"/><path d="m55 6h2v2h-2z" fill="url(#New_Gradient_Swatch_1-18)"/><path d="m55 10h2v2h-2z" fill="url(#New_Gradient_Swatch_1-18)"/><path d="m55 14h2v2h-2z" fill="url(#New_Gradient_Swatch_1-18)"/><path d="m55 18h2v2h-2z" fill="url(#New_Gradient_Swatch_1-18)"/><path d="m55 22h2v2h-2z" fill="url(#New_Gradient_Swatch_1-18)"/><path d="m55 26h2v2h-2z" fill="url(#New_Gradient_Swatch_1-18)"/><path d="m55 30h2v2h-2z" fill="url(#New_Gradient_Swatch_1-18)"/><path d="m50 56h6v2h-6z" fill="url(#New_Gradient_Swatch_1-2)"/><path d="m8 56h6v2h-6z" fill="url(#New_Gradient_Swatch_1)"/></g></svg>