<svg height="512" viewBox="0 0 128 128" width="512" xmlns="http://www.w3.org/2000/svg"><path d="m118.263 21.664h-81.906a8.009 8.009 0 0 0 -8 8v5.627a5.894 5.894 0 0 0 -3.907 5.539v8.018h-13.909a4.811 4.811 0 0 0 -4.805 4.805v51.879a4.811 4.811 0 0 0 4.805 4.805h86.444a1 1 0 0 0 1-1 4.945 4.945 0 0 0 -4.939-4.939h-.428a4.34 4.34 0 0 1 -4.267-3.677l-.979-6.546h30.891a8.009 8.009 0 0 0 8-8v-56.511a8.009 8.009 0 0 0 -8-8z" fill="#e6e7e8"/><path d="m114.262 18.664h-81.9a7 7 0 0 0 -7 7v6.375a4.892 4.892 0 0 1 .983-.1h36.555a4.89 4.89 0 0 1 4.89 4.89v52.346h46.475a7 7 0 0 0 7-7v-56.511a7 7 0 0 0 -7.003-7z" fill="#6dc9f7"/><path d="m114.262 18.664h-3a7 7 0 0 1 7 7v56.511a7 7 0 0 1 -7 7h3a7 7 0 0 0 7-7v-56.511a7 7 0 0 0 -7-7z" fill="#fff"/><path d="m110.188 24.738h-73.757a5 5 0 0 0 -5 5v2.2h31.469a4.89 4.89 0 0 1 4.89 4.89v41.934h42.4a5 5 0 0 0 5-5v-44.024a5 5 0 0 0 -5.002-5z" fill="#d4fbff"/><path d="m105.858 31.94h-42.958a4.89 4.89 0 0 1 4.89 4.89v13.39h38.071a2 2 0 0 0 2-2v-14.28a2 2 0 0 0 -2.003-2z" fill="#ffd7e5"/><path d="m80.8 53.819h-13.013v18.7h13.013a2 2 0 0 0 2-2v-14.7a2 2 0 0 0 -2-2z" fill="#fa759e"/><rect fill="#fa759e" height="18.972" rx="2" transform="matrix(0 1 -1 0 161.542 -35.202)" width="18.702" x="89.021" y="53.684"/><path d="m89.047 101.4h-.429a5.316 5.316 0 0 1 -5.257-4.53l-1.15-7.694h-14.424v11.272a4.89 4.89 0 0 1 -4.89 4.89h30.088a3.938 3.938 0 0 0 -3.938-3.938z" fill="#0089ef"/><circle cx="73.31" cy="83.777" fill="#0089ef" r="2.603"/><path d="m62.9 31.94h-36.56a4.89 4.89 0 0 0 -4.89 4.89v9.019h10.62a3.8 3.8 0 0 1 3.8 3.805v51.878a3.8 3.8 0 0 1 -3.8 3.805h30.83a4.89 4.89 0 0 0 4.89-4.89v-63.617a4.89 4.89 0 0 0 -4.89-4.89z" fill="#6dc9f7"/><path d="m21.45 38.9v6.95h10.62a3.8 3.8 0 0 1 3.8 3.805v45.731h31.917v-56.486z" fill="#d4fbff"/><path d="m40.517 71.56h-4.643v17.065h4.643a1.892 1.892 0 0 0 1.892-1.893v-13.279a1.892 1.892 0 0 0 -1.892-1.893z" fill="#fa759e"/><path d="m62.322 45.605h-35.407a1.868 1.868 0 0 0 -.912.244h6.067a3.8 3.8 0 0 1 3.8 3.805v18.982h26.452a1.892 1.892 0 0 0 1.893-1.892v-19.244a1.893 1.893 0 0 0 -1.893-1.895z" fill="#ffd7e5"/><rect fill="#fa759e" height="17.388" rx="1.893" transform="matrix(0 1 -1 0 134.705 25.48)" width="17.065" x="46.08" y="71.399"/><g fill="#0089ef"><rect height="1.514" rx=".713" width="12.763" x="38.237" y="34.733"/><circle cx="54.029" cy="35.49" r=".831"/><rect height="3.678" rx="1.732" width="11.033" x="39.102" y="98.099"/></g><rect fill="#6dc9f7" height="59.488" rx="3.805" width="33.138" x="2.737" y="45.849"/><path d="m-3.586 57.812h45.783v33.138h-45.783z" fill="#d4fbff" transform="matrix(0 1 -1 0 93.686 55.075)"/><rect fill="#ffd7e5" height="23.138" rx="2" transform="matrix(0 1 -1 0 82.686 44.075)" width="13.783" x="12.414" y="51.812"/><rect fill="#fa759e" height="23.138" rx="2" transform="matrix(0 1 -1 0 101.686 63.075)" width="19.783" x="9.414" y="70.812"/><rect fill="#0089ef" height="1.227" rx=".555" width="10.345" x="14.133" y="48.112"/><circle cx="26.933" cy="48.726" fill="#0089ef" r=".673"/><rect fill="#0089ef" height="2.981" rx="1.348" width="8.942" x="14.835" y="99.471"/><path d="m47.6 19.663h7.367a1 1 0 0 0 0-2h-7.367a1 1 0 0 0 0 2z" fill="#3a2c60"/><path d="m114.263 17.663h-55.7a1 1 0 0 0 0 2h55.7a6.007 6.007 0 0 1 6 6v56.512a6.007 6.007 0 0 1 -6 6h-45.476v-8.413h41.4a6.006 6.006 0 0 0 6-6v-44.024a6.006 6.006 0 0 0 -6-6h-73.756a6.006 6.006 0 0 0 -6 6v1.2h-4.074v-5.275a6.007 6.007 0 0 1 6-6h11.764a1 1 0 0 0 0-2h-11.764a8.009 8.009 0 0 0 -8 8v5.627a5.894 5.894 0 0 0 -3.907 5.539v8.02h-13.908a4.81 4.81 0 0 0 -4.8 4.805v51.878a4.81 4.81 0 0 0 4.805 4.805h86.438a1 1 0 0 0 1-1 4.944 4.944 0 0 0 -4.938-4.938h-.429a4.341 4.341 0 0 1 -4.268-3.678l-.978-6.546h30.891a8.009 8.009 0 0 0 8-8v-56.512a8.009 8.009 0 0 0 -8-8zm-51.363 86.674h-26.946a4.763 4.763 0 0 0 .921-2.805v-5.146h29.912v4.061a3.894 3.894 0 0 1 -3.887 3.89zm-59.163-51.849h31.138v43.784h-31.138zm28.694-22.75a4 4 0 0 1 4-4h73.757a4 4 0 0 1 4 4v44.024a4 4 0 0 1 -4 4h-41.4v-40.933a5.9 5.9 0 0 0 -5.888-5.889h-30.469zm-6.091 3.2h36.56a3.894 3.894 0 0 1 3.89 3.889v1.073h-44.34v-1.07a3.894 3.894 0 0 1 3.89-3.89zm-3.89 6.962h44.337v54.486h-29.912v-44.732a4.811 4.811 0 0 0 -4.806-4.805h-9.619zm-15.908 6.949h25.527a2.809 2.809 0 0 1 2.806 2.805v.834h-31.138v-.834a2.808 2.808 0 0 1 2.805-2.805zm-2.8 54.683v-3.26h31.133v3.26a2.809 2.809 0 0 1 -2.806 2.805h-25.527a2.808 2.808 0 0 1 -2.805-2.805zm78.635-4.516a6.354 6.354 0 0 0 6.246 5.383h.429a2.942 2.942 0 0 1 2.763 1.938h-24.5a5.864 5.864 0 0 0 1.478-3.89v-10.272h12.557z" fill="#3a2c60"/></svg>