<svg height="512" viewBox="0 0 40 60" width="512" xmlns="http://www.w3.org/2000/svg"><g id="Page-1" fill="none" fill-rule="evenodd"><g id="008---Responsive-Design" fill-rule="nonzero"><path id="Shape" d="m26 1h2c1.6568542 0 3 1.34314575 3 3v41c0 1.6568542-1.3431458 3-3 3h-24c-1.65685425 0-3-1.3431458-3-3v-41c0-1.65685425 1.34314575-3 3-3z" fill="#2fa8cc"/><path id="Shape" d="m31 4v1c.04 0-30 4.259-29.96 39.47-.02861911-.1549886-.04201618-.3124041-.04-.47v-40c0-1.65685425 1.34314575-3 3-3h2l2.86 3.05c.56637574.60708315 1.3597411.95123705 2.19.95h9.9c.8302589.00123705 1.6236243-.34291685 2.19-.95l2.86-3.05h2c1.6568542 0 3 1.34314575 3 3z" fill="#67b9cc"/><path id="Shape" d="m31 44v4c0 1.6568542-1.3431458 3-3 3h-24c-1.65685425 0-3-1.3431458-3-3v-4c0 1.6568542 1.34314575 3 3 3h24c1.6568542 0 3-1.3431458 3-3z" fill="#464f5d"/><path id="Shape" d="m26 1-2.86 3.05c-.5663757.60708315-1.3597411.95123705-2.19.95h-9.9c-.8302589.00123705-1.62362426-.34291685-2.19-.95l-2.86-3.05z" fill="#464f5d"/><path id="Shape" d="m38.293 51.293-.293.293v-48.172l.293.293c.3923789.37897221 1.0160848.37355237 1.4018186-.01218142.3857338-.3857338.3911536-1.00943969.0121814-1.40181858l-2-2c-.3904999-.39038194-1.0235001-.39038194-1.414 0l-2 2c-.3789722.39237889-.3735524 1.01608478.0121814 1.40181858.3857338.38573379 1.0094397.39115363 1.4018186.01218142l.293-.293v48.172l-.293-.293c-.3923789-.3789722-1.0160848-.3735524-1.4018186.0121814s-.3911536 1.0094397-.0121814 1.4018186l2 2c.3904999.3903819 1.0235001.3903819 1.414 0l2-2c.3789722-.3923789.3735524-1.0160848-.0121814-1.4018186s-1.0094397-.3911536-1.4018186-.0121814z" fill="#ff5364"/><path id="Shape" d="m29.707 54.293c-.3923789-.3789722-1.0160848-.3735524-1.4018186.0121814s-.3911536 1.0094397-.0121814 1.4018186l.293.293h-25.172l.293-.293c.37897221-.3923789.37355237-1.0160848-.01218142-1.4018186-.3857338-.3857338-1.00943969-.3911536-1.40181858-.0121814l-2 2c-.39038194.3904999-.39038194 1.0235001 0 1.414l2 2c.39237889.3789722 1.01608478.3735524 1.40181858-.0121814.38573379-.3857338.39115363-1.0094397.01218142-1.4018186l-.293-.293h25.172l-.293.293c-.2599566.2510745-.3642126.6228779-.2726972.9725073.0915155.3496295.3645604.6226744.7141899.7141899.3496294.0915154.7214328-.0127406.9725073-.2726972l2-2c.3903819-.3904999.3903819-1.0235001 0-1.414z" fill="#ff5364"/><g fill="#fff"><path id="Shape" d="m5 12c-.4043959-.0000863-.76893405-.2437275-.92367798-.6173454-.15474393-.373618-.06922994-.8036603.21667798-1.0896546l2-2c.39237889-.37897221 1.01608478-.37355237 1.40181858.01218142.38573379.3857338.39115363 1.00943969.01218142 1.40181858l-2 2c-.18749273.1875494-.44180519.2929434-.707.293z"/><path id="Shape" d="m5 19c-.4043959-.0000863-.76893405-.2437275-.92367798-.6173454-.15474393-.373618-.06922994-.8036603.21667798-1.0896546l9-9c.3923789-.37897221 1.0160848-.37355237 1.4018186.01218142.3857338.3857338.3911536 1.00943969.0121814 1.40181858l-9 9c-.18749273.1875494-.44180519.2929434-.707.293z"/></g></g></g></svg>