<svg height="512" viewBox="0 0 512 512" width="512" xmlns="http://www.w3.org/2000/svg" xmlns:xlink="http://www.w3.org/1999/xlink"><linearGradient id="New_Gradient_Swatch_22" gradientUnits="userSpaceOnUse" x1="-4.15" x2="430.485" y1="456.15" y2="21.515"><stop offset=".011" stop-color="#dcdce3"/><stop offset="1" stop-color="#ededf1"/></linearGradient><linearGradient id="New_Gradient_Swatch_4" gradientUnits="userSpaceOnUse" x1="64" x2="449.539" y1="424" y2="38.461"><stop offset=".011" stop-color="#cacad5"/><stop offset="1" stop-color="#ededf1"/></linearGradient><linearGradient id="New_Gradient_Swatch_11" gradientUnits="userSpaceOnUse" x1="246.192" x2="420.937" y1="475.809" y2="301.063"><stop offset=".011" stop-color="#60c6be"/><stop offset="1" stop-color="#80d1cb"/></linearGradient><g id="_10-SOS" data-name="10-SOS"><g id="gradient"><path d="m404 0h-376a12 12 0 0 0 -12 12v364l96 96h292a12 12 0 0 0 12-12v-448a12 12 0 0 0 -12-12z" fill="url(#New_Gradient_Swatch_22)"/><path d="m112 472v-84a12 12 0 0 0 -12-12h-84z" fill="url(#New_Gradient_Swatch_4)"/><g fill="#b8b8c7"><path d="m136 76h-56a12 12 0 0 1 0-24h56a12 12 0 0 1 0 24z"/><path d="m352 76h-160a12 12 0 0 1 0-24h160a12 12 0 0 1 0 24z"/><path d="m224 268h-144a12 12 0 0 1 0-24h144a12 12 0 0 1 0 24z"/><path d="m184 316h-104a12 12 0 0 1 0-24h104a12 12 0 0 1 0 24z"/></g><path d="m120 220h-40a12 12 0 0 1 0-24h40a12 12 0 0 0 0-24h-16a36 36 0 0 1 0-72h40a12 12 0 0 1 0 24h-40a12 12 0 0 0 0 24h16a36 36 0 0 1 0 72z" fill="#d97779"/><path d="m328 220h-40a12 12 0 0 1 0-24h40a12 12 0 0 0 0-24h-16a36 36 0 0 1 0-72h40a12 12 0 0 1 0 24h-40a12 12 0 0 0 0 24h16a36 36 0 0 1 0 72z" fill="#d97779"/><path d="m224 220h-16a36.04 36.04 0 0 1 -36-36v-48a36.04 36.04 0 0 1 36-36h16a36.04 36.04 0 0 1 36 36v48a36.04 36.04 0 0 1 -36 36zm-16-96a12.013 12.013 0 0 0 -12 12v48a12.013 12.013 0 0 0 12 12h16a12.013 12.013 0 0 0 12-12v-48a12.013 12.013 0 0 0 -12-12z" fill="#d97779"/><path d="m451.864 359.1-19.13-2.367-6.626-16 11.854-15.2a6 6 0 0 0 -.489-7.932l-33.073-33.074a6 6 0 0 0 -7.931-.488l-15.2 11.853-16-6.626-2.369-19.131a6 6 0 0 0 -5.955-5.263h-46.77a6 6 0 0 0 -5.955 5.263l-2.367 19.131-16 6.626-15.2-11.853a6 6 0 0 0 -7.931.488l-33.066 33.073a6 6 0 0 0 -.489 7.932l11.854 15.2-6.627 16-19.131 2.368a6 6 0 0 0 -5.263 5.951v46.77a6 6 0 0 0 5.263 5.954l19.131 2.368 6.627 16-11.854 15.2a6 6 0 0 0 .489 7.932l33.072 33.072a6 6 0 0 0 7.931.488l15.2-11.853 16 6.626 2.367 19.131a6 6 0 0 0 5.953 5.261h46.77a6 6 0 0 0 5.955-5.263l2.367-19.131 16-6.626 15.2 11.853a6 6 0 0 0 7.931-.488l33.072-33.072a6 6 0 0 0 .489-7.932l-11.854-15.2 6.626-16 19.13-2.368a6 6 0 0 0 5.264-5.954v-46.77a6 6 0 0 0 -5.265-5.949zm-82.619 65.02a50.436 50.436 0 1 1 0-71.36 50.518 50.518 0 0 1 0 71.356z" fill="url(#New_Gradient_Swatch_11)"/></g></g></svg>