<svg id="Layer_3" enable-background="new 0 0 64 64" height="512" viewBox="0 0 64 64" width="512" xmlns="http://www.w3.org/2000/svg"><path d="m20 32h-2v-3c0-1.103.897-2 2-2h8v2h-8z" fill="#b7852f"/><path d="m4 46h46v16h-46z" fill="#b7852f"/><path d="m4 46h43v16h-43z" fill="#f4b23e"/><path d="m10 46h6v4h-6z" fill="#92826f"/><path d="m10 46h3v4h-3z" fill="#c3ad94"/><path d="m10 50h6v4h-6z" fill="#92826f"/><path d="m10 50h3v4h-3z" fill="#c3ad94"/><path d="m38 50h6v4h-6z" fill="#92826f"/><path d="m38 50h3v4h-3z" fill="#c3ad94"/><path d="m38 46h6v4h-6z" fill="#92826f"/><path d="m38 46h3v4h-3z" fill="#c3ad94"/><path d="m22 46h10v4h-10z" fill="#92826f"/><path d="m22 46h7v4h-7z" fill="#c3ad94"/><path d="m52 46h-50v-12c0-1.105.895-2 2-2h46c1.105 0 2 .895 2 2z" fill="#896423"/><path d="m47 32h-43c-1.105 0-2 .895-2 2v12h47v-12c0-1.105-.895-2-2-2z" fill="#b7852f"/><path d="m62 25v-6h-4.291c-.415-2.187-1.268-4.217-2.476-5.991l3.03-3.03-4.243-4.243-3.03 3.03c-1.773-1.207-3.803-2.06-5.99-2.475v-4.291h-6v4.291c-2.187.415-4.217 1.268-5.991 2.476l-3.03-3.03-4.243 4.243 3.03 3.03c-1.207 1.774-2.06 3.804-2.476 5.991h-4.29v6h4.291c.415 2.187 1.268 4.217 2.476 5.991l-3.03 3.03 4.243 4.243 3.03-3.03c1.774 1.207 3.804 2.06 5.991 2.476v4.289h6v-4.291c2.187-.415 4.217-1.268 5.991-2.476l3.03 3.03 4.243-4.243-3.03-3.03c1.207-1.774 2.06-3.804 2.476-5.991h4.289z" fill="#999"/><circle cx="42" cy="22" fill="#fff" r="12"/><path d="m44 34v-6.222c2.329-.859 4-3.166 4-5.885 0-2.721-1.67-5.035-4-5.893v5.893l-2 2.083-2-2.083v-5.893c-2.33.858-4 3.172-4 5.893 0 2.719 1.671 5.027 4 5.885v6.222" fill="#c3ad94"/><g fill="#fff"><path d="m10 49h6v2h-6z"/><path d="m38 49h6v2h-6z"/></g></svg>