<svg height="488pt" viewBox="0 -4 488 488" width="488pt" xmlns="http://www.w3.org/2000/svg" xmlns:xlink="http://www.w3.org/1999/xlink"><linearGradient id="a" gradientUnits="userSpaceOnUse" x1="-24" x2="464" y1="240.001401" y2="240.001401"><stop offset="0" stop-color="#fff200"/><stop offset="1" stop-color="#cd118c"/></linearGradient><g fill="url(#a)"><path d="m72.046875 68.65625c-2.558594 2.519531-5.070313 5.089844-7.527344 7.738281-1.3125 1.398438-2.589843 2.839844-3.871093 4.269531-1.601563 1.808594-3.199219 3.625-4.726563 5.480469-1.769531 2.105469-3.480469 4.25-5.179687 6.402344-.597657.796875-1.230469 1.480469-1.820313 2.253906-.386719.511719-.714844 1.054688-1.097656 1.601563-1 1.335937-2.0625 2.613281-3.039063 4v.046875l-4.785156 6.59375.230469.160156c-1.375 2.0625-2.757813 4.125-4.070313 6.222656-1.753906 2.808594-3.382812 5.679688-5.015625 8.550781-1.632812 2.871094-3.144531 5.488282-4.59375 8.296876-1.351562 2.609374-2.566406 5.273437-3.816406 7.921874-1.460937 3.117188-2.957031 6.230469-4.285156 9.40625-1.035157 2.480469-1.929688 5-2.882813 7.503907-1.277344 3.398437-2.597656 6.785156-3.726562 10.238281-.800782 2.480469-1.464844 5-2.191406 7.503906-1.023438 3.53125-2.089844 7.042969-2.953126 10.617188-.65625 2.71875-1.128906 5.488281-1.6875 8.234375-.6875 3.40625-1.457031 6.789062-2 10.238281-.542968 3.449219-.863281 6.910156-1.253906 10.398438-.320312 2.824218-.761718 5.601562-.984375 8.464843-.511719 6.351563-.769531 12.753907-.769531 19.199219 0 6.449219.265625 12.847656.800781 19.203125.222657 2.847656.664063 5.644531.984375 8.46875.390625 3.464844.710938 6.9375 1.253906 10.402344.546876 3.464843 1.3125 6.847656 2.007813 10.261719.5625 2.738281 1.023437 5.496093 1.679687 8.210937.867188 3.582031 1.9375 7.101563 2.960938 10.648437.726562 2.484376 1.375 5 2.175781 7.460938 1.136719 3.464844 2.457031 6.863281 3.753907 10.28125.941406 2.488281 1.832031 5 2.855468 7.457031 1.335938 3.199219 2.832032 6.320313 4.3125 9.453125 1.238282 2.632813 2.445313 5.28125 3.789063 7.875 1.457031 2.816406 3.042969 5.597656 4.609375 8.328125 1.570312 2.726563 3.257812 5.71875 5 8.527344 1.320312 2.09375 2.703125 4.160156 4.089844 6.222656l-.273438.160157 4.800781 6.664062c.976563 1.359375 2.039063 2.648438 3.046875 4 .375.503906.695313 1.039062 1.082032 1.542969.582031.800781 1.214843 1.472656 1.796874 2.234375 1.714844 2.191406 3.441407 4.351562 5.226563 6.480468 1.527344 1.839844 3.09375 3.628907 4.671875 5.414063 1.304688 1.464844 2.597656 2.921875 3.925781 4.34375 2.402344 2.617187 4.921875 5.152344 7.449219 7.648437l1.457031 1.433594c44.582031 43.335938 104.367188 67.488282 166.542969 67.277344v-16c-2.371094-.003906-4.738281-.191406-7.078125-.558594-27.9375-4.351562-54.402344-34.183594-72.585937-80.617187l-.070313-.175781c-1.371094-3.503907-2.671875-7.128907-3.945313-10.824219-.25-.703125-.488281-1.40625-.726562-2.125-1.074219-3.203125-2.097656-6.449219-3.097656-9.761719-.367188-1.25-.742188-2.503906-1.105469-3.777344-.851563-2.984375-1.675781-6.023437-2.46875-9.109375-.144531-.554687-.28125-1.113281-.417969-1.664062 30.085938-6.320313 60.753906-9.464844 91.496094-9.386719v-16c-31.894531-.074219-63.707031 3.195312-94.921875 9.753906-.285156-1.390625-.613281-2.753906-.886719-4.160156-.503906-2.535156-1.046875-5.039062-1.503906-7.609375-1.136719-6.503906-2.085938-13.152344-2.945312-19.847656-.214844-1.703125-.496094-3.375-.695313-5.085938-.855469-7.472656-1.488281-15.050781-1.984375-22.664062-.070312-1.21875-.214844-2.402344-.285156-3.617188-.351563-6.222656-.441406-12.496093-.546875-18.769531h103.769531v-16h-103.769531c.105469-6.269531.195312-12.542969.546875-18.765625.070312-1.21875.214844-2.402344.285156-3.617187.496094-7.617188 1.128906-15.199219 1.984375-22.664063.199219-1.710937.480469-3.382813.695313-5.085937.859374-6.699219 1.808593-13.347657 2.945312-19.851563.457031-2.566406 1-5.070313 1.503906-7.605469.273438-1.410156.601563-2.769531.886719-4.160156 31.214844 6.558594 63.027344 9.828125 94.921875 9.75v-16c-30.746094.078125-61.414062-3.0625-91.503906-9.375.144531-.558594.28125-1.121094.425781-1.671875.792969-3.085937 1.617187-6.125 2.46875-9.113281.363281-1.269532.738281-2.527344 1.105469-3.773438 1-3.3125 2.023437-6.578125 3.097656-9.761718.238281-.71875.476562-1.421876.726562-2.128907 1.273438-3.695312 2.574219-7.320312 3.945313-10.824219l.070313-.175781c18.175781-46.398437 44.648437-76.261719 72.585937-80.613281 2.339844-.367188 4.707031-.554688 7.078125-.5625v-16c-62.199219-.210938-122.003906 23.957031-166.59375 67.320312-.460938.441407-.902344.890626-1.359375 1.335938zm74.25 20.425781c-1.570313 3.953125-3.082031 8.019531-4.535156 12.199219l-.722657 2.054688c-1.21875 3.613281-2.402343 7.304687-3.542968 11.074218-.398438 1.328125-.800782 2.65625-1.183594 4-.972656 3.328125-1.898438 6.714844-2.777344 10.160156-.214844.847657-.464844 1.648438-.679687 2.503907-24.542969-5.964844-48.097657-15.417969-69.953125-28.082031l.386718-.503907c1.414063-1.824219 2.871094-3.613281 4.335938-5.382812.296875-.351563.574219-.703125.863281-1.054688 1.328125-1.601562 2.664063-3.128906 4-4.664062.441407-.496094.894531-.984375 1.34375-1.480469 1.109375-1.234375 2.238281-2.453125 3.382813-3.664062 1.546875-1.601563 3.105468-3.199219 4.695312-4.800782 1.59375-1.601562 3.027344-2.960937 4.5625-4.398437 1.535156-1.441407 3.296875-3.050781 4.96875-4.539063 1.671875-1.488281 3.199219-2.757812 4.796875-4.101562 1.601563-1.34375 3.464844-2.847656 5.226563-4.234375 1.757812-1.382813 3.304687-2.574219 4.984375-3.824219 1.679687-1.246094 3.613281-2.613281 5.445312-3.894531s3.441407-2.398438 5.183594-3.527344c1.875-1.222656 3.769531-2.402344 5.675781-3.578125 1.773438-1.085938 3.550782-2.175781 5.351563-3.199219 1.941406-1.117187 3.917969-2.191406 5.894531-3.253906 1.816406-.976563 3.632812-1.960937 5.480469-2.890625 2.023437-1.015625 4.070312-1.964844 6.128906-2.917969 1.855469-.871093 3.710937-1.746093 5.597656-2.5625 2.097657-.902343 4.21875-1.742187 6.335938-2.582031 1.898437-.753906 3.777343-1.519531 5.679687-2.214844 2.183594-.800781 4.394532-1.511718 6.59375-2.25 1.894532-.625 3.785156-1.277344 5.695313-1.855468 2.273437-.6875 4.578125-1.289063 6.871093-1.902344 1.890626-.503906 3.761719-1.042969 5.65625-1.496094.359376-.089844.714844-.144531 1.074219-.226562-19.058593 18.933593-33.675781 41.859374-42.808593 67.121093zm-19.480469 70.773438c-.9375 5.355469-1.6875 10.800781-2.402344 16.265625-.445312 3.28125-.972656 6.519531-1.351562 9.832031-.664062 5.914063-1.109375 11.921875-1.597656 17.9375-.21875 2.941406-.542969 5.824219-.703125 8.796875-.355469 6.402344-.464844 12.851562-.570313 19.328125h-103.871094c.113282-3.316406.136719-6.652344.398438-9.941406.203125-2.617188.609375-5.199219.90625-7.800781.367188-3.273438.671875-6.550782 1.183594-9.792969.511718-3.238281 1.207031-6.285157 1.839844-9.421875.527343-2.609375.984374-5.242188 1.597656-7.824219.800781-3.289063 1.769531-6.519531 2.714844-9.769531.6875-2.398438 1.320312-4.800782 2.085937-7.144532 1.03125-3.199218 2.25-6.285156 3.425781-9.40625.902344-2.402343 1.757813-4.800781 2.742188-7.160156 1.226562-2.914062 2.59375-5.769531 3.9375-8.632812 1.191406-2.527344 2.34375-5.0625 3.632812-7.550782 1.285156-2.488281 2.773438-5.066406 4.199219-7.585937 1.601563-2.734375 3.105469-5.472656 4.800781-8.144531 1.230469-1.964844 2.550782-3.886719 3.847656-5.8125 23.617188 13.898437 49.160157 24.234375 75.800782 30.671875-.25 1.183593-.472656 2.398437-.707032 3.566406-.65625 3.183594-1.34375 6.351563-1.910156 9.589844zm-5.335937 116.257812c.449219 6.015625.894531 12 1.597656 17.9375.378906 3.3125.90625 6.550781 1.355469 9.832031.734375 5.460938 1.488281 10.910157 2.398437 16.261719.566407 3.242188 1.257813 6.402344 1.894531 9.601563.234376 1.183594.457032 2.398437.707032 3.566406-26.652344 6.441406-52.203125 16.785156-75.832032 30.6875-1.296874-1.933594-2.625-3.863281-3.859374-5.832031-1.664063-2.664063-3.199219-5.382813-4.75-8.101563-1.433594-2.527344-2.886719-5.050781-4.222657-7.625-1.335937-2.574218-2.402343-5-3.609375-7.511718-1.351562-2.871094-2.726562-5.734376-3.953125-8.664063-.984375-2.351563-1.832031-4.746094-2.726562-7.121094-1.191407-3.136719-2.402344-6.261719-3.449219-9.445312-.800781-2.347657-1.382812-4.738281-2.070312-7.105469-.960938-3.265625-1.914063-6.511719-2.714844-9.792969-.613282-2.574219-1.0625-5.191406-1.597656-7.792969-.640626-3.140624-1.34375-6.269531-1.847657-9.445312-.503906-3.175781-.800781-6.519531-1.183593-9.792969-.296876-2.601562-.707032-5.183593-.90625-7.800781-.261719-3.289062-.285157-6.625-.398438-9.941406h103.894531c.105469 6.476562.21875 12.949218.570313 19.324218.160156 2.9375.488281 5.816407.703125 8.761719zm19.558593 100.550781.722657 2.058594c1.453125 4.175782 2.964843 8.242188 4.535156 12.199219 9.132813 25.261719 23.75 48.1875 42.808594 67.121094-.351563-.082031-.714844-.136719-1.058594-.226563-1.910156-.453125-3.800781-1-5.6875-1.503906-2.296875-.613281-4.589844-1.207031-6.855469-1.894531-1.910156-.578125-3.792968-1.222657-5.679687-1.855469-2.214844-.730469-4.433594-1.449219-6.617188-2.25-1.894531-.695312-3.757812-1.464844-5.640625-2.207031-2.132812-.847657-4.269531-1.6875-6.398437-2.601563-1.871094-.796875-3.710938-1.679687-5.601563-2.535156-2.0625-.960938-4.125-1.917969-6.160156-2.941406-1.832031-.921875-3.636719-1.898438-5.445312-2.875-1.992188-1.070313-4-2.144532-5.945313-3.277344-1.785156-1.027344-3.535156-2.105469-5.296875-3.203125-1.917969-1.183594-3.832031-2.398437-5.71875-3.613281-1.734375-1.136719-3.441406-2.3125-5.136719-3.496094-1.847656-1.289062-3.6875-2.59375-5.503906-3.9375-1.664063-1.230469-3.304687-2.496094-4.933594-3.785156-1.777343-1.390625-3.535156-2.8125-5.273437-4.261719-1.601563-1.335937-3.199219-2.6875-4.71875-4.066406-1.707032-1.503907-3.386719-3.03125-5.035156-4.589844-1.519532-1.425781-3.015626-2.863281-4.496094-4.335937-1.597656-1.601563-3.199219-3.238282-4.796875-4.914063-1.066407-1.101563-2.101563-2.21875-3.105469-3.351563-.535156-.597656-1.089844-1.183593-1.601562-1.789062-1.375-1.539062-2.71875-3.105469-4.046876-4.683594-.199218-.246094-.398437-.496094-.609374-.734375-1.539063-1.867187-3.0625-3.757812-4.566407-5.671875l-.351562-.464844c21.855469-12.65625 45.410156-22.113281 69.953125-28.078124.214844.855468.460937 1.65625.679687 2.503906.882813 3.445312 1.808594 6.832031 2.773438 10.160156.386719 1.34375.800781 2.671875 1.183593 4 1.191407 3.789062 2.398438 7.492188 3.625 11.101562zm0 0"/><path d="m488 296v-112h-64.734375c-3.117187-9.753906-7.042969-19.234375-11.738281-28.335938l45.777344-45.773437-79.199219-79.203125-45.777344 45.777344c-9.097656-4.695313-18.574219-8.617188-28.328125-11.726563v-64.738281h-48v16h32v60.730469l5.824219 1.648437c12.558593 3.550782 24.660156 8.566406 36.054687 14.933594l5.289063 2.960938 42.945312-42.953126 56.566407 56.570313-42.945313 42.910156 2.953125 5.289063c6.359375 11.40625 11.363281 23.519531 14.914062 36.085937l1.644532 5.824219h60.753906v80h-60.726562l-1.648438 5.824219c-3.558594 12.558593-8.570312 24.660156-14.9375 36.058593l-2.953125 5.285157 42.945313 42.945312-56.566407 56.558594-42.914062-42.941406-5.289063 2.957031c-11.402344 6.367188-23.515625 11.371094-36.085937 14.914062l-5.824219 1.671876v60.726562h-32v16h48v-64.734375c9.757812-3.109375 19.234375-7.035156 28.335938-11.734375l45.777343 45.773438 79.199219-79.199219-45.777344-45.777344c4.695313-9.097656 8.617188-18.574219 11.730469-28.328125zm0 0"/><path d="m254.550781 318.6875 2.898438 15.738281c45.574219-8.363281 78.675781-48.085937 78.675781-94.425781 0-46.335938-33.101562-86.0625-78.675781-94.421875l-2.898438 15.734375c37.984375 6.964844 65.570313 40.070312 65.570313 78.6875s-27.585938 71.722656-65.570313 78.6875zm0 0"/></g></svg>