<?xml version="1.0" encoding="iso-8859-1"?>
<!-- Generator: Adobe Illustrator 19.0.0, SVG Export Plug-In . SVG Version: 6.00 Build 0)  -->
<svg version="1.1" id="Capa_1" xmlns="http://www.w3.org/2000/svg" xmlns:xlink="http://www.w3.org/1999/xlink" x="0px" y="0px"
	 viewBox="0 0 512 512" style="enable-background:new 0 0 512 512;" xml:space="preserve">
<path style="fill:#2196F3;" d="M319.993,85.333h64c5.891,0,10.667-4.776,10.667-10.667v-64C394.66,4.776,389.884,0,383.993,0h-64
	C255.221,0.071,202.731,52.561,202.66,117.333V192h-74.667c-5.891,0-10.667,4.776-10.667,10.667v64
	c0,5.891,4.776,10.667,10.667,10.667h74.667v224c0,5.891,4.776,10.667,10.667,10.667h64c5.891,0,10.667-4.776,10.667-10.667v-224
	h74.667c4.589-0.003,8.662-2.942,10.112-7.296l21.333-64c1.862-5.589-1.16-11.629-6.749-13.491c-1.084-0.361-2.22-0.546-3.363-0.547
	h-96v-74.667C287.993,99.66,302.32,85.333,319.993,85.333z"/>
<path d="M277.327,512h-64c-5.891,0-10.667-4.776-10.667-10.667v-224h-74.667c-5.891,0-10.667-4.776-10.667-10.667v-64
	c0-5.891,4.776-10.667,10.667-10.667h74.667v-74.667C202.742,52.566,255.226,0.082,319.993,0h64c5.891,0,10.667,4.776,10.667,10.667
	v64c0,5.891-4.776,10.667-10.667,10.667h-64c-17.673,0-32,14.327-32,32V192h96c5.891-0.007,10.673,4.762,10.68,10.653
	c0.001,1.15-0.183,2.293-0.547,3.384l-21.333,64c-1.453,4.362-5.536,7.302-10.133,7.296h-74.667v224
	C287.993,507.224,283.218,512,277.327,512z M223.993,490.667h42.667v-224c0-5.891,4.776-10.667,10.667-10.667h77.653l14.229-42.667
	h-91.883c-5.891,0-10.667-4.776-10.667-10.667v-85.333C266.66,87.878,290.538,64,319.993,64h53.333V21.333h-53.333
	c-53.019,0-96,42.981-96,96v85.333c0,5.891-4.776,10.667-10.667,10.667H138.66V256h74.667c5.891,0,10.667,4.776,10.667,10.667
	V490.667z"/>
<g>
</g>
<g>
</g>
<g>
</g>
<g>
</g>
<g>
</g>
<g>
</g>
<g>
</g>
<g>
</g>
<g>
</g>
<g>
</g>
<g>
</g>
<g>
</g>
<g>
</g>
<g>
</g>
<g>
</g>
</svg>
