<?xml version="1.0" encoding="iso-8859-1"?>
<!-- Generator: Adobe Illustrator 19.0.0, SVG Export Plug-In . SVG Version: 6.00 Build 0)  -->
<svg version="1.1" id="Capa_1" xmlns="http://www.w3.org/2000/svg" xmlns:xlink="http://www.w3.org/1999/xlink" x="0px" y="0px"
	 viewBox="0 0 512.05 512.05" style="enable-background:new 0 0 512.05 512.05;" xml:space="preserve">
<path style="fill:#2196F3;" d="M256.025,0.05C117.67-2.678,3.184,107.038,0.025,245.383c0.361,70.423,31.544,137.157,85.333,182.613
	v73.387c0,5.891,4.776,10.667,10.667,10.667c1.999,0,3.958-0.562,5.653-1.621l59.456-37.141
	c30.292,11.586,62.459,17.494,94.891,17.429c138.355,2.728,252.841-106.988,256-245.333C508.866,107.038,394.38-2.678,256.025,0.05z
	"/>
<path style="fill:#FAFAFA;" d="M424.558,174.983c-3.174-4.254-8.993-5.527-13.653-2.987l-110.933,60.48l-69.013-59.179
	c-4.232-3.628-10.544-3.387-14.485,0.555l-128,128c-4.153,4.178-4.133,10.932,0.046,15.085c3.341,3.321,8.464,4.057,12.605,1.811
	l110.933-60.48l69.077,59.2c4.232,3.628,10.544,3.387,14.485-0.555l128-128C427.35,185.148,427.75,179.215,424.558,174.983z"/>
<path d="M96.025,512.05c-5.891,0-10.667-4.776-10.667-10.667v-73.387C31.576,382.534,0.394,315.805,0.025,245.383
	C3.184,107.038,117.67-2.678,256.025,0.05c138.355-2.728,252.841,106.988,256,245.333c-3.159,138.345-117.645,248.062-256,245.333
	c-32.439,0.064-64.612-5.844-94.912-17.429l-59.435,37.141C99.983,511.488,98.024,512.05,96.025,512.05z M256.025,21.383
	c-126.574-2.731-231.511,97.436-234.667,224c0.401,65.826,30.293,128.004,81.451,169.429c2.459,2.027,3.884,5.048,3.883,8.235
	v59.136l47.68-29.867c2.898-1.818,6.492-2.135,9.664-0.853c29.209,11.888,60.454,17.975,91.989,17.92
	c126.574,2.731,231.511-97.436,234.667-224C487.536,118.819,382.599,18.652,256.025,21.383z"/>
<path d="M96.025,320.05c-5.891,0.011-10.675-4.757-10.686-10.648c-0.005-2.84,1.123-5.565,3.134-7.571l128-128
	c3.942-3.941,10.254-4.183,14.485-0.555l69.077,59.307l110.933-60.48c5.178-2.809,11.653-0.887,14.462,4.291
	c2.246,4.141,1.51,9.264-1.811,12.605l-128,128c-3.942,3.941-10.254,4.183-14.485,0.555l-69.12-59.371l-110.933,60.48
	C99.537,319.539,97.799,320.015,96.025,320.05z M213.358,234.716c2.545,0.006,5.004,0.921,6.933,2.581l67.157,57.6l68.651-68.715
	l-52.309,28.523c-3.888,2.109-8.675,1.6-12.032-1.28l-67.157-57.6l-68.651,68.757l52.309-28.523
	C209.82,235.193,211.573,234.731,213.358,234.716z"/>
<g>
</g>
<g>
</g>
<g>
</g>
<g>
</g>
<g>
</g>
<g>
</g>
<g>
</g>
<g>
</g>
<g>
</g>
<g>
</g>
<g>
</g>
<g>
</g>
<g>
</g>
<g>
</g>
<g>
</g>
</svg>
