<svg height="512pt" viewBox="0 0 512 512" width="512pt" xmlns="http://www.w3.org/2000/svg" xmlns:xlink="http://www.w3.org/1999/xlink"><linearGradient id="a" gradientUnits="userSpaceOnUse" x1="0" x2="512" y1="256" y2="256"><stop offset="0" stop-color="#80d8ff"/><stop offset="1" stop-color="#ea80fc"/></linearGradient><path d="m390.386719 198.636719-68.835938 98.332031c-6.019531 8.605469-17.667969 11.085938-26.675781 5.683594l-82.667969-49.605469-61.058593 83.585937c-6.511719 8.917969-19.027344 10.867188-27.945313 4.351563s-10.867187-19.027344-4.351563-27.949219l71.832032-98.332031c6.101562-8.355469 17.570312-10.675781 26.441406-5.351563l82.347656 49.410157 58.144532-83.066407c6.332031-9.046874 18.804687-11.25 27.851562-4.914062 9.050781 6.335938 11.25 18.804688 4.917969 27.855469zm121.613281 57.363281c0 141.484375-114.496094 256-256 256-41.703125 0-82.898438-10.21875-119.5625-29.601562l-94.707031 9.828124c-12.621094 1.316407-23.265625-9.339843-21.957031-21.957031l9.828124-94.707031c-19.382812-36.664062-29.601562-77.859375-29.601562-119.5625 0-141.484375 114.496094-256 256-256 141.484375 0 256 114.496094 256 256zm-40 0c0-119.378906-96.605469-216-216-216-119.378906 0-216 96.605469-216 216 0 37.023438 9.535156 73.554688 27.574219 105.652344 2.023437 3.605468 2.882812 7.75 2.457031 11.863281l-7.929688 76.382813c80.777344-8.347657 76.542969-8.035157 78.449219-8.035157 3.421875 0 6.796875.875 9.800781 2.566407 32.09375 18.035156 68.625 27.570312 105.648438 27.570312 119.378906 0 216-96.605469 216-216zm0 0" fill="url(#a)"/></svg>